<?xml version="1.0" encoding="utf-8"?>
<!-- Generator: Adobe Illustrator 18.1.1, SVG Export Plug-In . SVG Version: 6.00 Build 0)  -->
<svg version="1.1" xmlns="http://www.w3.org/2000/svg" xmlns:xlink="http://www.w3.org/1999/xlink" x="0px" y="0px"
	 viewBox="0 0 500 500" enable-background="new 0 0 500 500" xml:space="preserve">
<g id="Layer_1" display="none">
	<g display="inline">
		<path fill="#010101" d="M407.7,145.7c-1.9-0.9-4.2-0.6-5.9,0.7l-82.5,68.7l-53.6-26.8c-2.7-1.4-6-0.3-7.4,2.5
			c-1.4,2.7-0.2,6,2.5,7.4l56.9,28.4c2,1,4.3,0.7,6-0.7l76.2-63.5v127.7l-80.5,67.1l-138.9-69.4c-2-1-4.3-0.7-6,0.7l-76.2,63.5
			V224.4l80.5-67.1l53.6,26.8c2.7,1.4,6.1,0.3,7.4-2.5c1.4-2.7,0.3-6.1-2.5-7.4l-56.9-28.4c-2-1-4.3-0.7-6,0.7l-85.2,71
			c-1.3,1.1-2,2.6-2,4.2v142.1c0,2.1,1.2,4.1,3.2,5c0.7,0.4,1.6,0.5,2.3,0.5c1.3,0,2.5-0.4,3.6-1.3l82.5-68.7l138.9,69.4
			c2,1,4.3,0.7,6-0.7l85.3-71.1c1.3-1,2-2.6,2-4.2V150.7C410.9,148.6,409.6,146.6,407.7,145.7z"/>
		<path fill="#010101" d="M172.4,179.1v85.2c0,3.1,2.5,5.6,5.5,5.6c3.1,0,5.5-2.5,5.5-5.6v-85.2c0-3.1-2.5-5.5-5.5-5.5
			C174.9,173.6,172.4,176.1,172.4,179.1z"/>
		<path fill="#010101" d="M325.6,335.5v-85.3c0-3-2.5-5.5-5.6-5.5s-5.5,2.5-5.5,5.5v85.3c0,3.1,2.5,5.5,5.5,5.5
			C323.1,341,325.6,338.5,325.6,335.5z"/>
		<path fill="#010101" d="M249,56.7c20.4,0,37.1,16.7,37.1,37.1c0,20.5-16.7,37.1-37.1,37.1c-20.5,0-37.1-16.6-37.1-37.1
			C211.9,73.4,228.5,56.7,249,56.7z M243.5,141.7v108.5c0,3.1,2.5,5.5,5.5,5.5c3.1,0,5.5-2.5,5.5-5.5V141.7
			c24-2.7,42.6-23.1,42.6-47.8c0-26.6-21.6-48.2-48.1-48.2c-26.6,0-48.2,21.6-48.2,48.2C200.8,118.5,219.5,138.9,243.5,141.7z"/>
		<path fill="#010101" d="M240.3,250.1c0-3-2.5-5.5-5.5-5.5s-5.5,2.5-5.5,5.5c0,7.9,5.2,19.7,19.7,19.7c14.4,0,19.7-11.8,19.7-19.7
			c0-3-2.5-5.5-5.5-5.5c0,0,0,0-0.1,0c-3,0-5.4,2.4-5.5,5.5c0,2.6-1,8.7-8.7,8.7C241.3,258.9,240.4,252.8,240.3,250.1z"/>
	</g>
</g>
<g id="Layer_2">
	<g>
		<path fill="#010101" d="M203.6,241.3c2.2,0,4.8-0.7,6.6-2.6l73.8-73.8c3.7-3.7,3.7-9.6,0-12.9c-3.7-3.3-9.6-3.7-12.9,0l-73.8,73.8
			c-3.7,3.7-3.7,9.6,0,12.9C198.8,240.6,201.4,241.3,203.6,241.3z"/>
		<path fill="#010101" d="M203.6,287.4c2.2,0,4.8-0.7,6.6-2.6l55.3-55.3c3.7-3.7,3.7-9.6,0-12.9c-3.7-3.3-9.6-3.7-12.9,0l-55.3,55.3
			c-3.7,3.7-3.7,9.6,0,12.9C198.8,286.7,201.4,287.4,203.6,287.4z"/>
		<path fill="#010101" d="M243.1,331c1.8,1.8,4.1,2.6,6.6,2.6c2.6,0,4.8-0.7,6.6-2.6l46.1-46.1c3.7-3.7,3.7-9.6,0-12.9
			c-3.7-3.3-9.6-3.7-12.9,0l-46.5,45.7C239.8,321.3,239.8,327.3,243.1,331z"/>
		<path fill="#010101" d="M323.5,352H176V56.9h147.5V352z M166.8,38.4c-5.2,0-9.2,4.1-9.2,9.2v313.5c0,5.2,4.1,9.2,9.2,9.2h166
			c5.2,0,9.2-4.1,9.2-9.2V47.7c0-5.2-4.1-9.2-9.2-9.2H166.8z"/>
	</g>
</g>
<g id="Layer_4" display="none">
	<path display="inline" fill="#010101" d="M227.3,168.4c-0.6,0-1.3,0.3-1.7,0.6c-11.4,6.6-19,17.1-22.2,29
		c-3.3,11.9-2,25.3,4.5,36.8c13.1,23,42.3,30.9,65,17.4c2.2-0.9,3.1-3.8,1.9-5.8c-1.2-2.1-4.1-2.7-6-1.3
		c-19,11.1-42.9,4.6-53.8-14.5c-5.4-9.6-6.6-20.5-3.8-30.4c2.6-9.7,9-18.5,18.4-24.1c1.6-0.9,2.5-2.9,1.9-4.7
		C231,169.4,229.2,168.1,227.3,168.4z M249.3,149.7c33.4,0,60.4,27.3,60.4,61s-27,60.9-60.4,60.9s-60.7-27.2-60.7-60.9
		C188.6,177,215.9,149.7,249.3,149.7z M249.3,141.4c-37.9,0-68.7,31.2-68.7,69.3c0,38.2,30.8,69.1,68.7,69.1s68.7-30.9,68.7-69.1
		C318,172.5,287.2,141.4,249.3,141.4z M338.4,127.5h35.1c0.4,0,0.9,0.3,0.9,0.9v16.5c0,0.4-0.4,0.7-0.9,0.7h-35.1
		c-0.4,0-0.7-0.3-0.7-0.7v-16.5C337.6,127.8,337.9,127.5,338.4,127.5z M338.4,119.2c-5,0-9,4.1-9,9.1v16.5c0,5,4.1,9.1,9,9.1h35.1
		c5,0,9-4.1,9-9.1v-16.5c0-5-4.1-9.1-9-9.1H338.4z M122.3,102.4H376c16.5,0,29.6,13.1,29.6,29.5v164.4c0,16.4-13.1,29.8-29.6,29.8
		H122.3c-16.3,0-29.4-13.4-29.4-29.8V131.9C92.8,115.5,105.9,102.4,122.3,102.4z M122.3,94.1c-20.7,0-37.6,16.8-37.6,37.8v164.4
		c0,21,16.9,38.1,37.6,38.1H376c20.8,0,37.9-17.1,37.9-38.1V131.9c0-21-17.1-37.8-37.9-37.8H122.3z"/>
</g>
<g id="Layer_3" display="none">
	<g display="inline">
		<path fill="#010101" d="M215.2,359.8l-3.2-9.3c-32.4-2.8-59-9-73.5-17c1.6,23.7,4.7,39.9,8.3,39.9c0,0,22.7,12.7,93.6,12h22.7
			c70.9,0.6,93.6-12,93.6-12c3.6,0,6.7-16.1,8.3-39.9c-14.5,8-41.1,14.2-73.5,17l-3.1,9.3H215.2z"/>
		<path fill="#010101" d="M208.4,285.1c-2.5-13.3-14.2-23.3-28.2-23.3c-14,0-25.7,10-28.2,23.3H208.4z"/>
		<path fill="#010101" d="M151.9,296c2.5,13.3,14.2,23.3,28.2,23.3c14,0,25.7-10,28.2-23.3H151.9z"/>
		<path fill="#010101" d="M184.6,290.5c0,5.9-8.9,5.9-8.9,0C175.7,284.6,184.6,284.6,184.6,290.5"/>
		<path fill="#010101" d="M323.4,323c-17.9,0-32.5-14.5-32.5-32.5c0-17.9,14.5-32.5,32.5-32.5c17.9,0,32.5,14.5,32.5,32.5
			C355.9,308.5,341.3,323,323.4,323z M209,258.8v-39.1h85.5v39.1H209z M180.1,323c-17.9,0-32.5-14.5-32.5-32.5
			c0-17.9,14.5-32.5,32.5-32.5c17.9,0,32.5,14.5,32.5,32.5C212.6,308.5,198.1,323,180.1,323z M358.1,216.6c0,0-18.4-11.4-75.2-10.2
			c0,0-12.8,5.7-31.2,6.3c-18.4-0.6-31.2-6.3-31.2-6.3c-56.7-1.3-75.2,10.2-75.2,10.2c-4.5,5.7-8,38.8-8,77
			c0,13.3,0.4,25.8,1.2,36.7c14.4,7.9,40.7,14.1,72.8,16.9c1.1,0.1,2.2,0.2,3.3,0.3l0.7,2.2l2,6h68.8l2-6l0.8-2.2
			c1.1-0.1,2.2-0.2,3.3-0.3c32.1-2.9,58.4-9,72.8-16.9c0.7-10.9,1.2-23.4,1.2-36.7C366.1,255.4,362.6,222.3,358.1,216.6z"/>
		<path fill="#010101" d="M351.6,285.1c-2.6-13.3-14.2-23.3-28.2-23.3c-14,0-25.7,10-28.2,23.3H351.6z"/>
		<path fill="#010101" d="M295.1,296c2.5,13.3,14.2,23.3,28.2,23.3c14,0,25.7-10,28.2-23.3H295.1z"/>
		<path fill="#010101" d="M327.8,290.5c0,5.9-8.9,5.9-8.9,0C318.9,284.6,327.8,284.6,327.8,290.5"/>
		<path fill="#010101" d="M244.8,145.4h-42.5c-12.5,0-22.6,10.1-22.6,22.6v37.3c2.9-0.3,5.9-0.7,9-1V168c0-7.5,6.1-13.6,13.6-13.6
			h42.5L244.8,145.4L244.8,145.4z"/>
		<path fill="#010101" d="M301.2,145.4h-42.5v9h42.5c7.5,0,13.6,6.1,13.6,13.6v36.3c3.1,0.3,6.2,0.6,9,1v-37.3
			C323.8,155.6,313.7,145.4,301.2,145.4z"/>
		<rect x="248" y="109.6" fill="#010101" width="7.4" height="98.9"/>
		<rect x="244.3" y="103.2" fill="#010101" width="14.9" height="4.3"/>
		<path fill="#010101" d="M294.2,103.2h-9c0-19.2-15.6-34.8-34.8-34.8v-9C274.6,59.4,294.2,79.1,294.2,103.2z"/>
		<path fill="#010101" d="M339.4,103.2h-9c0-44.1-35.9-80-80-80v-9C299.5,14.2,339.4,54.1,339.4,103.2z"/>
		<path fill="#010101" d="M316.8,103.2h-9.1c0-31.6-25.7-57.4-57.4-57.4v-9C287,36.8,316.8,66.6,316.8,103.2z"/>
	</g>
</g>
</svg>
