<?xml version="1.0" encoding="utf-8"?>
<!-- Generator: Adobe Illustrator 18.1.1, SVG Export Plug-In . SVG Version: 6.00 Build 0)  -->
<svg version="1.1" xmlns="http://www.w3.org/2000/svg" xmlns:xlink="http://www.w3.org/1999/xlink" x="0px" y="0px"
	 viewBox="0 0 500 500" enable-background="new 0 0 500 500" xml:space="preserve">
<g id="BG" display="none">
	<rect display="inline" fill="#6D6E71" width="500" height="500"/>
	<rect x="677" y="243.5" display="inline" fill="#6D6E71" width="587.8" height="546.5"/>
</g>
<g id="map" display="none">
	<g display="inline">
		<path fill="#FFFFFF" d="M407.7,145.7c-1.9-0.9-4.2-0.6-5.9,0.7l-82.5,68.7l-53.6-26.8c-2.7-1.4-6-0.3-7.4,2.5
			c-1.4,2.7-0.2,6,2.5,7.4l56.9,28.4c2,1,4.3,0.7,6-0.7l76.2-63.5v127.7l-80.5,67.1l-138.9-69.4c-2-1-4.3-0.7-6,0.7l-76.2,63.5
			V224.4l80.5-67.1l53.6,26.8c2.7,1.4,6.1,0.3,7.4-2.5c1.4-2.7,0.3-6.1-2.5-7.4l-56.9-28.4c-2-1-4.3-0.7-6,0.7l-85.2,71
			c-1.3,1.1-2,2.6-2,4.2v142.1c0,2.1,1.2,4.1,3.2,5c0.7,0.4,1.6,0.5,2.3,0.5c1.3,0,2.5-0.4,3.6-1.3l82.5-68.7l138.9,69.4
			c2,1,4.3,0.7,6-0.7l85.3-71.1c1.3-1,2-2.6,2-4.2V150.7C410.9,148.6,409.6,146.6,407.7,145.7z"/>
		<path fill="#FFFFFF" d="M172.4,179.1v85.2c0,3.1,2.5,5.6,5.5,5.6c3.1,0,5.5-2.5,5.5-5.6v-85.2c0-3.1-2.5-5.5-5.5-5.5
			C174.9,173.6,172.4,176.1,172.4,179.1z"/>
		<path fill="#FFFFFF" d="M325.6,335.5v-85.3c0-3-2.5-5.5-5.6-5.5s-5.5,2.5-5.5,5.5v85.3c0,3.1,2.5,5.5,5.5,5.5
			C323.1,341,325.6,338.5,325.6,335.5z"/>
		<path fill="#FFFFFF" d="M249,56.7c20.4,0,37.1,16.7,37.1,37.1c0,20.5-16.7,37.1-37.1,37.1c-20.5,0-37.1-16.6-37.1-37.1
			C211.9,73.4,228.5,56.7,249,56.7z M243.5,141.7v108.5c0,3.1,2.5,5.5,5.5,5.5c3.1,0,5.5-2.5,5.5-5.5V141.7
			c24-2.7,42.6-23.1,42.6-47.8c0-26.6-21.6-48.2-48.1-48.2c-26.6,0-48.2,21.6-48.2,48.2C200.8,118.5,219.5,138.9,243.5,141.7z"/>
		<path fill="#FFFFFF" d="M240.3,250.1c0-3-2.5-5.5-5.5-5.5s-5.5,2.5-5.5,5.5c0,7.9,5.2,19.7,19.7,19.7c14.4,0,19.7-11.8,19.7-19.7
			c0-3-2.5-5.5-5.5-5.5c0,0,0,0-0.1,0c-3,0-5.4,2.4-5.5,5.5c0,2.6-1,8.7-8.7,8.7C241.3,258.9,240.4,252.8,240.3,250.1z"/>
	</g>
</g>
<g id="mirror" display="none">
	<g display="inline">
		<path fill="#FFFFFF" d="M203.6,241.3c2.2,0,4.8-0.7,6.6-2.6l73.8-73.8c3.7-3.7,3.7-9.6,0-12.9c-3.7-3.3-9.6-3.7-12.9,0l-73.8,73.8
			c-3.7,3.7-3.7,9.6,0,12.9C198.8,240.6,201.4,241.3,203.6,241.3z"/>
		<path fill="#FFFFFF" d="M203.6,287.4c2.2,0,4.8-0.7,6.6-2.6l55.3-55.3c3.7-3.7,3.7-9.6,0-12.9c-3.7-3.3-9.6-3.7-12.9,0l-55.3,55.3
			c-3.7,3.7-3.7,9.6,0,12.9C198.8,286.7,201.4,287.4,203.6,287.4z"/>
		<path fill="#FFFFFF" d="M243.1,331c1.8,1.8,4.1,2.6,6.6,2.6c2.6,0,4.8-0.7,6.6-2.6l46.1-46.1c3.7-3.7,3.7-9.6,0-12.9
			c-3.7-3.3-9.6-3.7-12.9,0l-46.5,45.7C239.8,321.3,239.8,327.3,243.1,331z"/>
		<path fill="#FFFFFF" d="M323.5,352H176V56.9h147.5V352z M166.8,38.4c-5.2,0-9.2,4.1-9.2,9.2v313.5c0,5.2,4.1,9.2,9.2,9.2h166
			c5.2,0,9.2-4.1,9.2-9.2V47.7c0-5.2-4.1-9.2-9.2-9.2H166.8z"/>
	</g>
</g>
<g id="camera" display="none">
	<path display="inline" fill="#FFFFFF" d="M227.3,168.4c-0.6,0-1.3,0.3-1.7,0.6c-11.4,6.6-19,17.1-22.2,29
		c-3.3,11.9-2,25.3,4.5,36.8c13.1,23,42.3,30.9,65,17.4c2.2-0.9,3.1-3.8,1.9-5.8c-1.2-2.1-4.1-2.7-6-1.3
		c-19,11.1-42.9,4.6-53.8-14.5c-5.4-9.6-6.6-20.5-3.8-30.4c2.6-9.7,9-18.5,18.4-24.1c1.6-0.9,2.5-2.9,1.9-4.7
		C231,169.4,229.2,168.1,227.3,168.4z M249.3,149.7c33.4,0,60.4,27.3,60.4,61s-27,60.9-60.4,60.9s-60.7-27.2-60.7-60.9
		C188.6,177,215.9,149.7,249.3,149.7z M249.3,141.4c-37.9,0-68.7,31.2-68.7,69.3c0,38.2,30.8,69.1,68.7,69.1s68.7-30.9,68.7-69.1
		C318,172.5,287.2,141.4,249.3,141.4z M338.4,127.5h35.1c0.4,0,0.9,0.3,0.9,0.9v16.5c0,0.4-0.4,0.7-0.9,0.7h-35.1
		c-0.4,0-0.7-0.3-0.7-0.7v-16.5C337.6,127.8,337.9,127.5,338.4,127.5z M338.4,119.2c-5,0-9,4.1-9,9.1v16.5c0,5,4.1,9.1,9,9.1h35.1
		c5,0,9-4.1,9-9.1v-16.5c0-5-4.1-9.1-9-9.1H338.4z M122.3,102.4H376c16.5,0,29.6,13.1,29.6,29.5v164.4c0,16.4-13.1,29.8-29.6,29.8
		H122.3c-16.3,0-29.4-13.4-29.4-29.8V131.9C92.8,115.5,105.9,102.4,122.3,102.4z M122.3,94.1c-20.7,0-37.6,16.8-37.6,37.8v164.4
		c0,21,16.9,38.1,37.6,38.1H376c20.8,0,37.9-17.1,37.9-38.1V131.9c0-21-17.1-37.8-37.9-37.8H122.3z"/>
</g>
<g id="remotecontrol">
	<g>
		<path fill="#FFFFFF" d="M215.2,359.8l-3.2-9.3c-32.4-2.8-59-9-73.5-17c1.6,23.7,4.7,39.9,8.3,39.9c0,0,22.7,12.7,93.6,12h22.7
			c70.9,0.6,93.6-12,93.6-12c3.6,0,6.7-16.1,8.3-39.9c-14.5,8-41.1,14.2-73.5,17l-3.1,9.3H215.2z"/>
		<path fill="#FFFFFF" d="M208.4,285.1c-2.5-13.3-14.2-23.3-28.2-23.3c-14,0-25.7,10-28.2,23.3H208.4z"/>
		<path fill="#FFFFFF" d="M151.9,296c2.5,13.3,14.2,23.3,28.2,23.3c14,0,25.7-10,28.2-23.3H151.9z"/>
		<path fill="#FFFFFF" d="M184.6,290.5c0,5.9-8.9,5.9-8.9,0C175.7,284.6,184.6,284.6,184.6,290.5"/>
		<path fill="#FFFFFF" d="M323.4,323c-17.9,0-32.5-14.5-32.5-32.5c0-17.9,14.5-32.5,32.5-32.5c17.9,0,32.5,14.5,32.5,32.5
			C355.9,308.5,341.3,323,323.4,323z M209,258.8v-39.1h85.5v39.1H209z M180.1,323c-17.9,0-32.5-14.5-32.5-32.5
			c0-17.9,14.5-32.5,32.5-32.5c17.9,0,32.5,14.5,32.5,32.5C212.6,308.5,198.1,323,180.1,323z M358.1,216.6c0,0-18.4-11.4-75.2-10.2
			c0,0-12.8,5.7-31.2,6.3c-18.4-0.6-31.2-6.3-31.2-6.3c-56.7-1.3-75.2,10.2-75.2,10.2c-4.5,5.7-8,38.8-8,77
			c0,13.3,0.4,25.8,1.2,36.7c14.4,7.9,40.7,14.1,72.8,16.9c1.1,0.1,2.2,0.2,3.3,0.3l0.7,2.2l2,6h68.8l2-6l0.8-2.2
			c1.1-0.1,2.2-0.2,3.3-0.3c32.1-2.9,58.4-9,72.8-16.9c0.7-10.9,1.2-23.4,1.2-36.7C366.1,255.4,362.6,222.3,358.1,216.6z"/>
		<path fill="#FFFFFF" d="M351.6,285.1c-2.6-13.3-14.2-23.3-28.2-23.3c-14,0-25.7,10-28.2,23.3H351.6z"/>
		<path fill="#FFFFFF" d="M295.1,296c2.5,13.3,14.2,23.3,28.2,23.3c14,0,25.7-10,28.2-23.3H295.1z"/>
		<path fill="#FFFFFF" d="M327.8,290.5c0,5.9-8.9,5.9-8.9,0C318.9,284.6,327.8,284.6,327.8,290.5"/>
		<path fill="#FFFFFF" d="M244.8,145.4h-42.5c-12.5,0-22.6,10.1-22.6,22.6v37.3c2.9-0.3,5.9-0.7,9-1V168c0-7.5,6.1-13.6,13.6-13.6
			h42.5L244.8,145.4L244.8,145.4z"/>
		<path fill="#FFFFFF" d="M301.2,145.4h-42.5v9h42.5c7.5,0,13.6,6.1,13.6,13.6v36.3c3.1,0.3,6.2,0.6,9,1v-37.3
			C323.8,155.6,313.7,145.4,301.2,145.4z"/>
		<rect x="248" y="109.6" fill="#FFFFFF" width="7.4" height="98.9"/>
		<rect x="244.3" y="103.2" fill="#FFFFFF" width="14.9" height="4.3"/>
		<path fill="#FFFFFF" d="M294.2,103.2h-9c0-19.2-15.6-34.8-34.8-34.8v-9C274.6,59.4,294.2,79.1,294.2,103.2z"/>
		<path fill="#FFFFFF" d="M339.4,103.2h-9c0-44.1-35.9-80-80-80v-9C299.5,14.2,339.4,54.1,339.4,103.2z"/>
		<path fill="#FFFFFF" d="M316.8,103.2h-9.1c0-31.6-25.7-57.4-57.4-57.4v-9C287,36.8,316.8,66.6,316.8,103.2z"/>
	</g>
</g>
<g id="foreman" display="none">
	<g display="inline">
		<path fill="#010101" d="M333.9,153.5v223.4h-29.5V275.7h-14.5v101.1l-30.2,0.7l0-224.1c0-12.9,10.5-23.4,23.4-23.4h27.4
			C323.4,130.1,333.9,140.6,333.9,153.5z"/>
		<path fill="#010101" d="M327.6,80.7c0,17-13.8,30.8-30.8,30.8c-17,0-30.8-13.8-30.8-30.8v-8.3h61.6V80.7z"/>
		<path fill="#010101" d="M198.8,199.4l-25.2-50.2l42.7-7.3l25.2,50.2L198.8,199.4z M220,134.4l-13.5,2.3l-4.7-5.9l-26.4,4.5
			l1.5,6.4l-13.5,2.3l34.9,69.5l56.5-9.7L220,134.4z"/>
		<polygon fill="#010101" points="215.9,161 186.4,166 185.1,163.3 214.6,158.2 		"/>
		<polygon fill="#010101" points="219.4,167.9 189.9,172.9 188.5,170.2 218,165.1 		"/>
		<polygon fill="#010101" points="222.9,174.8 193.4,179.9 192,177.1 221.5,172 		"/>
		<path fill="#010101" d="M331.1,65.7h-93.2v-4.8h25c1.9-13.9,12.2-25.1,25.6-28.5c-6.2,4.7-10.2,12.1-10.2,20.5h4.2
			c0-10.8,8.1-19.8,18.5-21.3C317.9,33.6,331.1,48.1,331.1,65.7z"/>
	</g>
</g>
<g id="spectator" display="none">
	<path display="inline" fill="#010101" d="M249.3,313l1.7,0c48.8,0,98.2-30.7,154.9-96.5C349.3,150.7,299.9,120,251.1,120l-1.5,0
		l-1.8,0c-48.8,0-98.2,30.7-154.9,96.5c56.8,65.8,106.2,96.5,154.9,96.5L249.3,313z M251.1,334.9L251.1,334.9l-1.7,0l-1.5,0
		c-57.4,0-113.9-35.4-177.7-111.4c-3.4-4.1-3.4-10,0-14.1C134,133.5,190.4,98.1,247.9,98.1l1.8,0l1.5,0
		c57.4,0,113.9,35.4,177.7,111.4c3.4,4.1,3.4,10,0,14.1C365,299.5,308.6,334.9,251.1,334.9z"/>
	<path display="inline" fill="#010101" d="M249.5,169c-26.2,0-47.5,21.3-47.5,47.5s21.3,47.5,47.5,47.5s47.5-21.3,47.5-47.5
		S275.7,169,249.5,169z M249.5,285.9c-38.3,0-69.4-31.1-69.4-69.4s31.1-69.4,69.4-69.4s69.4,31.1,69.4,69.4S287.8,285.9,249.5,285.9
		z"/>
	<path display="inline" fill="#010101" d="M216.4,223.8c-4,0-7.3-3.3-7.3-7.3c0-22.3,18.1-40.4,40.4-40.4c4,0,7.3,3.3,7.3,7.3
		c0,4-3.3,7.3-7.3,7.3c-14.2,0-25.8,11.6-25.8,25.8C223.7,220.5,220.4,223.8,216.4,223.8z"/>
</g>
<g id="cumtomize" display="none">
	<g display="inline">
		<path fill="#010101" d="M126.1,145.8c0,25-37.4,25-37.4,0C88.7,120.8,126.1,120.8,126.1,145.8"/>
		<path fill="#010101" d="M109.9,197.5L78,183.7c3.5-2.1,6-3.6,6-3.6v-0.2c3.9-2.5,6.6-7.1,6.6-12.1c0-7.9-6.4-14.2-14.2-14.2
			c-3.6,0-6.9,1.4-9.4,3.6l0-0.1c0,0-36.4,32.6-38.9,38.3c-3.1,7-2,18-2,18l1.8,65.2h21c0,0,0.5-63.6,1.3-68.3c1-5.9,2-7.5,3.6-9.9
			c0.7-1,6-5,12-8.8l37.6,12.7L109.9,197.5z"/>
		<path fill="#010101" d="M381.2,268.3c-15.2,0-27.6-12.4-27.6-27.6c0-15.2,12.4-27.6,27.6-27.6c15.2,0,27.6,12.4,27.6,27.6
			C408.9,255.9,396.5,268.3,381.2,268.3z M304.6,170.5V141c20,0.1,31.1,0.1,31.1,0.1s1.7-0.4,4.7,1.8c3,2.2,25,25.5,25,25.5
			s2.4,2.3-2.8,2.2C360.4,170.5,339.5,170.5,304.6,170.5z M299.6,170.5c-39.9,0-85.7,0-85.7,0s-4.5,0.4,0.3-2.9
			c4.8-3.3,40.3-26,42.4-26.5c1.1-0.2,28-0.2,42.9-0.2V170.5z M145,268.3c-15.2,0-27.6-12.4-27.6-27.6c0-15.2,12.4-27.6,27.6-27.6
			c15.2,0,27.6,12.4,27.6,27.6C172.6,255.9,160.2,268.3,145,268.3z M474.3,231c0,0,0-40,0-45.9c0-5.9-5.6-8.4-5.6-8.4
			s-49.3-8.5-52.9-9c-3.5-0.6-9.5-2.8-9.5-2.8s-51.9-28.5-57.2-30.2c-5.3-1.7-8.9-1.4-8.9-1.4l-80-0.1c-6.7-0.1-7.7,1-7.7,1
			s-62.5,34.6-71.2,39.5l-65.2-65.3c-1.7-1.7-4.5-1.7-6.2,0c-1.7,1.7-1.7,4.5,0,6.2l63.1,63.1c-1.1,0.4-1.7,0.6-1.7,0.6L66,195.1
			c-3.2,0.5-3.7,4.4-3.7,4.4s-0.5,25-0.1,29.6c0.4,4.7,1.4,6.4,4,7.4c3.4,1.3,42.2,5.7,42.2,5.7l0.3,0c0.8,19.4,16.7,34.9,36.3,34.9
			c17.1,0,31.4-12.2,35.3-28.1l1.5-0.3H346c3.9,15,18.2,27.5,35.2,27.5c17,0,31.2-12.6,35.2-27.5h0.4c0,0,48.9-10.8,53.5-11.8
			C475,236,474.3,231,474.3,231z"/>
	</g>
</g>
<g id="settings" display="none">
	<g display="inline">
		<path fill="#FFFFFF" d="M250,94.5c-2.2,0-6.1,0-8.1,0.1c-4.5,0.3-15.2,2.6-19.4,18.1c-1,3.7-1.6,7.9-2.3,12
			c-0.1,0.7-0.3,1.6-0.4,2.6c-3.7,1.2-7.8,2.7-11.5,4.2c-0.7-0.6-1.4-1.2-1.9-1.7c-7.9-7-14.7-13-24.1-13c-4.5,0-8.6,1.4-12.1,4.1
			c-1.3,1-9.7,7.8-12.4,10.4c-3.1,3.1-9.6,11.8-3,26.1c1.6,3.5,3.8,7.1,5.9,10.6c0.4,0.6,0.9,1.4,1.4,2.3c-2,3.3-4.2,7-6.2,10.6
			c-0.8,0-1.7,0-2.5-0.1c-2.1-0.1-4.1-0.1-6.1-0.1c-4.2,0-7.3,0.2-10,0.8c-13.7,2.6-16.8,13-17.5,16.1c0,0.1-2.4,11.8-2.7,15.9
			c-0.4,5.4,0.9,15.3,14.6,21.8c3.5,1.6,7.5,3,11.4,4.3c0.7,0.3,1.6,0.5,2.5,0.9c0.6,3.8,1.3,8.1,2,12c-0.7,0.6-1.4,1.1-2,1.6
			c-3.2,2.6-6.6,5.2-9.3,7.9c-11.6,11.7-7.9,22.3-5.7,26.4c0.1,0.1,5.7,10.5,8.1,13.9c3.8,5.5,10,8.6,17.1,8.6
			c6.3,0,12.8-2.5,19.6-5.2c0.7-0.3,1.6-0.6,2.5-1c2.9,2.6,6.2,5.4,9.3,7.9c-0.2,0.9-0.3,1.8-0.5,2.5c-0.8,4-1.6,8.2-2,12
			c-1.4,16.2,8.1,22,12.3,23.8c2.3,1,11.8,4.5,15.1,5.5c1.8,0.5,3.6,0.8,5.4,0.8c13.3,0,19.6-11.5,25.1-21.7
			c0.4-0.7,0.8-1.5,1.3-2.3c2.1,0,4.2,0.1,6.1,0.1c1.9,0,4,0,6.1-0.1c0.5,0.8,0.9,1.6,1.3,2.3c5.6,10.2,11.8,21.7,25.1,21.7
			c1.8,0,3.7-0.3,5.4-0.8c3.3-0.9,12.8-4.5,15.1-5.5c4.2-1.7,13.7-7.6,12.3-23.8c-0.3-3.8-1.2-8-2-12c-0.1-0.7-0.3-1.6-0.5-2.5
			c3.1-2.5,6.4-5.3,9.3-7.9c0.9,0.3,1.7,0.7,2.5,1c6.8,2.7,13.3,5.2,19.6,5.2c7,0,13.2-3.1,17.1-8.6c2.4-3.4,8.1-13.8,8.1-13.9
			c2.2-4,5.9-14.7-5.7-26.4c-2.7-2.7-6.1-5.4-9.3-8c-0.6-0.5-1.3-1-2-1.6c0.8-4,1.5-8.3,2-12c0.9-0.3,1.8-0.6,2.5-0.9
			c3.9-1.3,7.9-2.7,11.4-4.3c13.7-6.4,15-16.4,14.6-21.8c-0.3-4.1-2.7-15.8-2.7-15.9c-0.6-3.1-3.8-13.4-17.5-16
			c-2.7-0.5-5.8-0.8-10-0.8c-1.9,0-4,0-6.1,0.1c-0.8,0-1.7,0-2.5,0.1c-1.9-3.5-4.2-7.3-6.2-10.6c0.5-0.8,1-1.6,1.4-2.3
			c2.1-3.5,4.3-7.1,5.9-10.6c2.2-4.8,6.4-16.9-3-26.1c-2.7-2.7-11-9.4-12.4-10.5c-3.5-2.7-7.7-4.1-12.1-4.1c-9.4,0-16.2,6-24.1,13
			c-0.6,0.5-1.2,1.1-1.9,1.7c-3.7-1.5-7.8-2.9-11.5-4.2c-0.1-0.9-0.3-1.8-0.4-2.6c-0.6-4.1-1.3-8.3-2.3-12
			c-4.2-15.5-15-17.8-19.4-18.1C256.1,94.5,252.1,94.5,250,94.5z M250,112.7c2.9,0,5.8,0,7,0.1c5.1,0.3,4.4,28.3,9.5,29.3
			c4.6,0.9,22.2,7.2,26.2,9.5c0.2,0.1,0.5,0.2,0.9,0.2c5.1,0,19.2-16.9,24.3-16.9c0.4,0,0.7,0.1,1,0.3c1.8,1.4,9,7.3,10.7,9
			c3.7,3.6-14.7,24.5-11.6,28.6c2.8,3.7,12.5,19.7,13.9,24.2c0.6,1.8,4.7,2.2,9.7,2.2c3.6,0,7.7-0.2,11.2-0.2c5.1,0,9.2,0.4,9.6,2.3
			c0.5,2.3,2.2,11.4,2.4,13.7c0.4,5.1-27,9.3-27.3,14.4c-0.3,4.6-3.1,23.1-4.8,27.5c-1.9,4.8,23.1,18.3,20.7,22.9
			c-1.1,2.1-5.6,10.2-7,12.1c-0.4,0.5-1.1,0.8-2.1,0.8c-5.7,0-20.3-7.9-26.1-7.9c-0.9,0-1.6,0.2-2,0.6c-3.1,3.4-17.3,15.6-21.4,17.9
			c-4.5,2.5,5.9,28.8,1.1,30.8c-2.1,0.9-10.9,4.1-13.1,4.8c-0.1,0-0.3,0.1-0.4,0.1c-4.9,0-13.3-24.4-18.3-24.4c-0.1,0-0.2,0-0.2,0
			c-2.3,0.4-8.1,0.5-13.9,0.5c-5.8,0-11.7-0.2-13.9-0.5c-0.1,0-0.2,0-0.2,0c-5,0-13.4,24.4-18.3,24.4c-0.1,0-0.3,0-0.4-0.1
			c-2.2-0.6-11-3.9-13.1-4.8c-4.7-2,5.6-28.3,1.1-30.8c-4-2.3-18.2-14.5-21.4-17.9c-0.4-0.5-1.1-0.6-2-0.6c-5.8,0-20.3,7.9-26.1,7.9
			c-1,0-1.7-0.2-2.1-0.8c-1.3-1.9-5.9-10-7-12.1c-2.4-4.5,22.6-18.1,20.7-22.9c-1.7-4.3-4.6-22.8-4.8-27.5
			c-0.3-5.1-27.7-9.3-27.3-14.4c0.2-2.3,1.9-11.5,2.4-13.7c0.4-1.9,4.5-2.3,9.6-2.3c3.6,0,7.6,0.2,11.2,0.2c5,0,9.1-0.4,9.7-2.2
			c1.5-4.4,11.1-20.5,13.9-24.2c3.1-4.1-15.3-25-11.6-28.6c1.6-1.6,8.8-7.5,10.7-9c0.3-0.2,0.6-0.3,1-0.3c5,0,19.2,16.9,24.3,16.9
			c0.3,0,0.6-0.1,0.9-0.2c4-2.4,21.6-8.6,26.2-9.5c5-1,4.3-29,9.5-29.3C244.2,112.8,247.1,112.7,250,112.7"/>
		<path fill="#FFFFFF" d="M250,186.7c-21.6,0-39.1,17.6-39.1,39.1s17.6,39.1,39.1,39.1s39.1-17.6,39.1-39.1S271.5,186.7,250,186.7z
			 M250,283.2c-31.6,0-57.4-25.7-57.4-57.4s25.7-57.4,57.4-57.4s57.4,25.7,57.4,57.4S281.6,283.2,250,283.2z"/>
	</g>
</g>
</svg>
