<?xml version="1.0" encoding="utf-8"?>
<!-- Generator: Adobe Illustrator 19.0.0, SVG Export Plug-In . SVG Version: 6.00 Build 0)  -->
<svg version="1.1" id="Layer_1" xmlns="http://www.w3.org/2000/svg" xmlns:xlink="http://www.w3.org/1999/xlink" x="0px" y="0px"
	 viewBox="-449 151 100 100" style="enable-background:new -449 151 100 100;" xml:space="preserve">
<style type="text/css">
	.st0{fill:#FFFFFF;}
</style>
<path class="st0" d="M-370.5,192.4h-3.2V172c0-11.6-11.1-21-24.8-21s-24.8,9.4-24.8,21h0v20.4h-3.2c-4.4,0-8,3.6-8,8V243
	c0,4.4,3.6,8,8,8h55.9c4.4,0,8-3.6,8-8v-42.6C-362.5,196-366.1,192.4-370.5,192.4z M-391.5,236.8h-13.9l2.8-15
	c-2.3-1.4-3.9-4-3.9-6.9c0-4.4,3.6-8.1,8.1-8.1c4.5,0,8.1,3.6,8.1,8.1c0,2.9-1.6,5.5-3.9,6.9L-391.5,236.8z M-384.4,192.4h-28.3V172
	l0,0c0-5.6,6.5-10.4,14.1-10.4s14.1,4.8,14.1,10.4C-384.4,172-384.4,192.4-384.4,192.4z"/>
</svg>
