<?xml version="1.0" encoding="utf-8"?>
<!-- Generator: Adobe Illustrator 18.1.1, SVG Export Plug-In . SVG Version: 6.00 Build 0)  -->
<svg version="1.1" xmlns="http://www.w3.org/2000/svg" xmlns:xlink="http://www.w3.org/1999/xlink" x="0px" y="0px"
	 viewBox="40 53 320 40" enable-background="new 40 53 320 40" xml:space="preserve">
<g id="Layer_4" display="none">
	<rect x="-15" y="-7.7" display="inline" fill="#555555" width="428" height="187"/>
</g>
<g id="Layer_1" display="none">
</g>
<g id="Layer_2">
	<g>
		<defs>
			<rect id="SVGID_1_" x="40" y="53" width="320" height="40"/>
		</defs>
		<clipPath id="SVGID_2_">
			<use xlink:href="#SVGID_1_"  overflow="visible"/>
		</clipPath>
		<g clip-path="url(#SVGID_2_)">
			<g>
				<g>
					<g>
						<g>
							<path d="M279.4,64.7c-0.1-0.2-0.1-0.3-0.2-0.4c-0.1-0.2-0.1-0.3-0.2-0.5c-0.1,0.2-0.1,0.3-0.2,0.5s-0.1,0.3-0.2,0.4
								l-4.9,12.4h10.4L279.4,64.7z"/>
						</g>
					</g>
				</g>
			</g>
			<g>
				<g>
					<g>
						<g>
							<path d="M175,64.7c-0.1-0.2-0.1-0.3-0.2-0.4c-0.1-0.2-0.1-0.3-0.2-0.5c-0.1,0.2-0.1,0.3-0.2,0.5c-0.1,0.2-0.1,0.3-0.2,0.4
								l-4.9,12.4h10.4L175,64.7z"/>
						</g>
					</g>
				</g>
			</g>
			<g>
				<g>
					<g>
						<g>
							<path d="M118.2,69.5c-0.5-1.3-1-2.4-1.8-3.3c-0.8-0.9-1.8-1.6-2.9-2.1c-1.1-0.5-2.4-0.8-3.8-0.8c-1.4,0-2.6,0.2-3.7,0.8
								c-1.1,0.5-2.1,1.2-2.9,2.1c-0.8,0.9-1.4,2-1.9,3.3c-0.5,1.3-0.6,2.8-0.6,4.5c0,1.7,0.2,3.2,0.6,4.5c0.5,1.3,1.1,2.4,1.9,3.3
								c0.8,0.9,1.8,1.6,2.9,2.1c1.1,0.5,2.3,0.8,3.7,0.8c1.4,0,2.6-0.2,3.8-0.8c1.1-0.5,2.1-1.2,2.9-2.1c0.8-0.9,1.4-2,1.8-3.3
								c0.4-1.3,0.6-2.8,0.6-4.5C119,72.3,118.7,70.8,118.2,69.5z"/>
						</g>
					</g>
				</g>
			</g>
			<g>
				<g>
					<g>
						<g>
							<path d="M162.5,65c-1.1-1-2.7-1.5-4.9-1.5h-4.2v11.6h4.2c1,0,1.9-0.2,2.7-0.4c0.8-0.3,1.5-0.7,2.1-1.2c0.6-0.5,1-1.2,1.3-1.8
								c0.3-0.7,0.5-1.5,0.5-2.2C164.2,67.4,163.6,66,162.5,65z"/>
						</g>
					</g>
				</g>
			</g>
			<g>
				<g>
					<g>
						<g>
							<path d="M235.4,69.5c-0.5-1.3-1-2.4-1.8-3.3c-0.8-0.9-1.8-1.6-2.9-2.1s-2.4-0.8-3.8-0.8c-1.4,0-2.6,0.2-3.7,0.8
								s-2.1,1.2-2.9,2.1c-0.8,0.9-1.4,2-1.9,3.3c-0.5,1.3-0.6,2.8-0.6,4.5c0,1.7,0.2,3.2,0.6,4.5c0.4,1.3,1.1,2.4,1.9,3.3
								c0.8,0.9,1.8,1.6,2.9,2.1c1.1,0.5,2.3,0.8,3.7,0.8s2.6-0.2,3.8-0.8c1.1-0.5,2.1-1.2,2.9-2.1c0.8-0.9,1.4-2,1.8-3.3
								c0.4-1.3,0.6-2.8,0.6-4.5C236.1,72.3,235.8,70.8,235.4,69.5z"/>
						</g>
					</g>
				</g>
			</g>
			<g>
				<g>
					<g>
						<g>
							<path d="M319.5,65c-1.1-1-2.7-1.5-4.9-1.5h-4.2v11.6h4.2c1,0,1.9-0.2,2.7-0.4c0.8-0.3,1.5-0.7,2.1-1.2c0.6-0.5,1-1.2,1.3-1.8
								c0.3-0.7,0.5-1.5,0.5-2.2C321.2,67.4,320.6,66,319.5,65z"/>
						</g>
					</g>
				</g>
			</g>
			<g>
				<g>
					<g>
						<g>
							<path d="M302.3,65c-1.1-1-2.7-1.5-4.9-1.5h-4.2v11.6h4.2c1,0,1.9-0.2,2.7-0.4c0.8-0.3,1.5-0.7,2.1-1.2c0.6-0.5,1-1.2,1.3-1.8
								c0.3-0.7,0.5-1.5,0.5-2.2C303.9,67.4,303.4,66,302.3,65z"/>
						</g>
					</g>
				</g>
			</g>
			<g>
				<g>
					<g>
						<path d="M40,13.2v125h320v-125H40z M95.5,83.5c-0.5,0.4-1.1,0.8-1.7,1c-0.6,0.3-1.3,0.5-2,0.7c-0.7,0.2-1.5,0.2-2.4,0.2
							c-1.4,0-2.8-0.2-4-0.8c-1.2-0.5-2.2-1.3-3.1-2.2c-0.9-1-1.6-2.2-2.1-3.6c-0.5-1.4-0.7-3-0.7-4.8c0-1.7,0.2-3.2,0.7-4.7
							c0.5-1.4,1.2-2.6,2.1-3.6c0.9-1,2-1.8,3.3-2.3s2.6-0.8,4.2-0.8c1.4,0,2.7,0.2,3.8,0.7s2.2,1.1,3.1,2l-0.2,0.3
							c-0.1,0.1-0.2,0.1-0.2,0.1s-0.2-0.1-0.3-0.2s-0.3-0.2-0.6-0.4c-0.2-0.2-0.6-0.3-0.9-0.6c-0.3-0.2-0.7-0.4-1.2-0.6
							c-0.5-0.2-1-0.3-1.5-0.4c-0.6-0.1-1.2-0.2-1.9-0.2c-1.4,0-2.6,0.2-3.8,0.8c-1.1,0.5-2.2,1.2-3,2.1c-0.8,0.9-1.4,2-1.9,3.3
							c-0.5,1.3-0.7,2.8-0.7,4.4c0,1.7,0.2,3.2,0.7,4.5c0.5,1.3,1.1,2.4,1.9,3.3c0.8,0.9,1.8,1.6,2.9,2.1c1.1,0.5,2.3,0.8,3.6,0.8
							c0.8,0,1.5-0.1,2.2-0.2c0.6-0.1,1.3-0.2,1.8-0.5c0.6-0.2,1-0.5,1.5-0.8c0.5-0.3,1-0.8,1.4-1.2c0.1-0.1,0.2-0.1,0.2-0.1
							c0.1,0,0.1,0,0.2,0.1l0.3,0.3C96.6,82.6,96.1,83.1,95.5,83.5z M119,78.6c-0.5,1.4-1.2,2.6-2.1,3.6c-0.9,1-1.9,1.7-3.2,2.2
							c-1.2,0.5-2.6,0.8-4.1,0.8c-1.4,0-2.8-0.2-4.1-0.8c-1.2-0.5-2.3-1.2-3.2-2.2c-0.9-1-1.6-2.2-2.1-3.6c-0.5-1.4-0.7-3-0.7-4.8
							s0.2-3.3,0.7-4.7c0.5-1.4,1.2-2.6,2.1-3.6c0.9-1,1.9-1.7,3.2-2.2c1.2-0.5,2.6-0.8,4.1-0.8c1.5,0,2.9,0.2,4.1,0.8
							c1.2,0.5,2.3,1.3,3.2,2.2c0.9,1,1.6,2.2,2.1,3.6c0.5,1.4,0.7,3,0.7,4.8C119.8,75.7,119.5,77.2,119,78.6z M145.7,85.1H145V64.7
							c0-0.1,0-0.2,0-0.2c0-0.1,0-0.2,0-0.2l-9,16.3c-0.1,0.2-0.2,0.3-0.4,0.3h-0.2c-0.2,0-0.2-0.1-0.4-0.3l-9.3-16.4
							c0,0.1,0,0.2,0,0.2c0,0.1,0,0.2,0,0.2v20.4H125V62.8h0.5c0.1,0,0.2,0,0.2,0c0.1,0,0.1,0.1,0.2,0.2l9.3,16.4l0.2,0.6
							c0.1-0.1,0.1-0.2,0.2-0.3c0.1-0.1,0.1-0.2,0.2-0.3l9-16.3c0.1-0.1,0.1-0.2,0.2-0.2c0.1,0,0.2,0,0.2,0h0.5V85.1z M164.5,71.9
							c-0.3,0.8-0.9,1.5-1.5,2.1c-0.6,0.6-1.4,1-2.3,1.3c-0.9,0.3-1.9,0.5-3,0.5h-4.2v9.3h-0.8V62.8h5.1c2.4,0,4.2,0.5,5.5,1.6
							c1.3,1.1,1.8,2.7,1.8,4.8C165,70.2,164.8,71.1,164.5,71.9z M183.3,85.1c-0.2,0-0.2-0.1-0.3-0.3l-2.8-7.1h-11l-2.8,7.1
							c-0.1,0.2-0.2,0.3-0.3,0.3h-0.6l8.9-22.3h0.8l8.9,22.3H183.3z M203.9,85.1h-0.3c-0.2,0-0.2-0.1-0.3-0.2l-14.7-20.7
							c0,0.1,0,0.2,0,0.3c0,0.1,0,0.2,0,0.2v20.2h-0.7V62.8h0.4c0.1,0,0.2,0,0.2,0s0.1,0.1,0.2,0.2l14.6,20.6c0-0.1,0-0.2,0-0.2
							s0-0.2,0-0.2V62.8h0.7V85.1z M211.6,85.1h-0.8V62.8h0.8V85.1z M236.2,78.6c-0.5,1.4-1.2,2.6-2.1,3.6c-0.9,1-1.9,1.7-3.2,2.2
							c-1.2,0.5-2.6,0.8-4.1,0.8c-1.4,0-2.8-0.2-4.1-0.8c-1.2-0.5-2.3-1.2-3.2-2.2c-0.9-1-1.6-2.2-2.1-3.6c-0.5-1.4-0.7-3-0.7-4.8
							s0.2-3.3,0.7-4.7c0.5-1.4,1.2-2.6,2.1-3.6s1.9-1.7,3.2-2.2c1.2-0.5,2.6-0.8,4.1-0.8s2.9,0.2,4.1,0.8c1.2,0.5,2.3,1.3,3.2,2.2
							c0.9,1,1.6,2.2,2.1,3.6c0.5,1.4,0.7,3,0.7,4.8C237,75.7,236.7,77.2,236.2,78.6z M258.4,85.1h-0.3c-0.2,0-0.2-0.1-0.3-0.2
							L243,64.2c0,0.1,0,0.2,0,0.3c0,0.1,0,0.2,0,0.2v20.2h-0.7V62.8h0.4c0.1,0,0.2,0,0.2,0s0.1,0.1,0.2,0.2l14.6,20.6
							c0-0.1,0-0.2,0-0.2s0-0.2,0-0.2V62.8h0.7V85.1z M287.7,85.1c-0.2,0-0.2-0.1-0.3-0.3l-2.8-7.1h-11l-2.8,7.1
							c-0.1,0.2-0.2,0.3-0.3,0.3h-0.6l8.9-22.3h0.8l8.9,22.3H287.7z M304.2,71.9c-0.3,0.8-0.9,1.5-1.5,2.1c-0.6,0.6-1.4,1-2.3,1.3
							s-1.9,0.5-3,0.5h-4.2v9.3h-0.8V62.8h5.1c2.4,0,4.2,0.5,5.5,1.6c1.3,1.1,1.8,2.7,1.8,4.8C304.8,70.2,304.6,71.1,304.2,71.9z
							 M321.5,71.9c-0.3,0.8-0.9,1.5-1.5,2.1c-0.6,0.6-1.4,1-2.3,1.3s-1.9,0.5-3,0.5h-4.2v9.3h-0.8V62.8h5.1c2.4,0,4.2,0.5,5.5,1.6
							s1.8,2.7,1.8,4.8C322,70.2,321.8,71.1,321.5,71.9z"/>
					</g>
				</g>
			</g>
		</g>
	</g>
</g>
<g id="Layer_3" display="none">
	<text transform="matrix(1 0 0 1 61.0112 83.9187)" display="inline" fill="#FFFFFF" font-family="'Lato-Thin'" font-size="34.515">COMPANION APP</text>
</g>
</svg>
