<?xml version="1.0" encoding="utf-8"?>
<!-- Generator: Adobe Illustrator 17.1.0, SVG Export Plug-In . SVG Version: 6.00 Build 0)  -->
<!DOCTYPE svg PUBLIC "-//W3C//DTD SVG 1.1//EN" "http://www.w3.org/Graphics/SVG/1.1/DTD/svg11.dtd">
<svg version="1.1" id="Layer_1" xmlns="http://www.w3.org/2000/svg" xmlns:xlink="http://www.w3.org/1999/xlink" x="0px" y="0px"
	 viewBox="0 0 995 207" enable-background="new 0 0 995 207" xml:space="preserve">
<g opacity="0.75">
	<path d="M571.1,78.6c-6.7,0-11.8,2.1-15.3,6.4c-3.5,4.2-5.3,10.4-5.3,18.5c0,8.2,1.7,14.5,5.3,18.7s8.6,6.4,15.3,6.4
		c6.7,0,11.8-2.1,15.2-6.3c3.4-4.2,5.1-10.5,5.1-18.7c0-8.2-1.7-14.4-5.1-18.6C582.8,80.7,577.8,78.6,571.1,78.6z"/>
	<path d="M235.4,78.6c-6.7,0-11.8,2.1-15.3,6.4c-3.5,4.2-5.3,10.4-5.3,18.5c0,8.2,1.7,14.5,5.3,18.7c3.5,4.2,8.6,6.4,15.3,6.4
		c6.7,0,11.8-2.1,15.2-6.3c3.4-4.2,5.1-10.5,5.1-18.7c0-8.2-1.7-14.4-5.1-18.6C247.2,80.7,242.1,78.6,235.4,78.6z"/>
	<path d="M423.1,80.8c-0.6,2.7-1.5,5.4-2.6,8.6l-7.1,18.6H433L426,89.4C425,87,424.1,84.2,423.1,80.8z"/>
	<path d="M380.7,82.1c-2.6-2-6.7-3.1-12.3-3.1H361v25h5.9c6.3,0,10.8-1,13.6-3c2.8-2,4.2-5.3,4.2-9.8
		C384.6,87.2,383.3,84.1,380.7,82.1z"/>
	<path d="M717.1,80.8c-0.6,2.7-1.5,5.4-2.6,8.6l-7.1,18.6h19.6l-7.1-18.6C719,87,718,84.2,717.1,80.8z"/>
	<path d="M830.7,82.1c-2.6-2-6.7-3.1-12.3-3.1H811v25h5.9c6.3,0,10.8-1,13.6-3c2.8-2,4.2-5.3,4.2-9.8
		C834.7,87.2,833.4,84.1,830.7,82.1z"/>
	<path d="M0,0v207h995V0H0z M166.9,122c3.7,4.3,8.9,6.5,15.8,6.5c4.2,0,9.4-0.8,14.4-2.3v6.2c-4,1.6-9.3,2.4-15.4,2.4
		c-8.9,0-15.8-2.7-20.6-8.1c-4.9-5.4-7.3-13.1-7.3-23.1c0-6.3,1.2-11.7,3.5-16.4c2.3-4.7,5.7-8.3,10.1-10.9
		c4.4-2.5,9.6-3.8,15.6-3.8c6.4,0,11.9,1.2,16.7,3.5l-3,6.1c-4.6-2.2-9.2-3.2-13.8-3.2c-6.7,0-11.9,2.2-15.8,6.7
		c-3.9,4.4-5.8,10.5-5.8,18.2C161.3,111.6,163.1,117.7,166.9,122z M255.8,126.4c-4.9,5.6-11.7,8.3-20.5,8.3
		c-8.9,0-15.8-2.7-20.7-8.2c-4.9-5.5-7.3-13.2-7.3-23.1c0-9.9,2.4-17.5,7.3-23c4.9-5.4,11.8-8.2,20.8-8.2c8.7,0,15.5,2.8,20.4,8.3
		c4.9,5.5,7.3,13.2,7.3,22.9C263.2,113.2,260.7,120.9,255.8,126.4z M337,134h-7V94.9c0-4.5-0.1-8.9,0.3-14.9H330l-20.8,54h-5.7
		L283,80h-0.3c0.4,4,0.4,9.5,0.4,15.4V134h-6V73h10.3l19.2,50h0.3l19.4-50H337V134z M385.6,105.1c-4.2,3.3-10.2,4.9-18,4.9H361v24
		h-8V73h16.2c15.2,0,22.7,6,22.7,17.8C391.9,96.9,389.8,101.8,385.6,105.1z M442.8,134l-7.6-19h-24.3l-7.5,19h-7.1l24-61h5.9
		l23.9,61H442.8z M506,134h-8.2l-33.2-51h-0.3c0.4,6,0.7,11.5,0.7,16.5V134h-7V73h8.4l33.1,51h0.3c-0.1-1-0.3-3.1-0.5-7.2
		c-0.2-4.1-0.3-7-0.3-8.7V73h7V134z M530,134h-8V73h8V134z M591.5,126.4c-4.9,5.6-11.7,8.3-20.5,8.3c-8.9,0-15.8-2.7-20.7-8.2
		c-4.9-5.5-7.3-13.2-7.3-23.1c0-9.9,2.4-17.5,7.3-23c4.9-5.4,11.8-8.2,20.8-8.2c8.7,0,15.5,2.8,20.4,8.3c4.9,5.5,7.3,13.2,7.3,22.9
		C598.9,113.2,596.4,120.9,591.5,126.4z M660,134h-8.3l-33.2-51h-0.3c0.4,6,0.8,11.5,0.8,16.5V134h-7V73h8.4l33.1,51h0.3
		c-0.1-1-0.3-3.1-0.5-7.2c-0.2-4.1-0.3-7-0.3-8.7V73h7V134z M736.7,134l-7.6-19h-24.3l-7.5,19h-7.1l24-61h5.9l23.9,61H736.7z
		 M784.5,105.1c-4.2,3.3-10.2,4.9-18,4.9H759v24h-7V73h16.1c15.2,0,22.7,6,22.7,17.8C790.8,96.9,788.7,101.8,784.5,105.1z
		 M835.7,105.1c-4.2,3.3-10.2,4.9-18,4.9H811v24h-7V73h15.2c15.2,0,22.7,6,22.7,17.8C842,96.9,839.9,101.8,835.7,105.1z"/>
	<path d="M779.6,82.1c-2.6-2-6.7-3.1-12.3-3.1H759v25h6.7c6.3,0,10.8-1,13.6-3c2.8-2,4.2-5.3,4.2-9.8
		C783.5,87.2,782.2,84.1,779.6,82.1z"/>
</g>
</svg>
