<?xml version="1.0" encoding="utf-8"?>
<!-- Generator: Adobe Illustrator 18.1.1, SVG Export Plug-In . SVG Version: 6.00 Build 0)  -->
<svg version="1.1" xmlns="http://www.w3.org/2000/svg" xmlns:xlink="http://www.w3.org/1999/xlink" x="0px" y="0px"
	 viewBox="0 0 400 150" enable-background="new 0 0 400 150" xml:space="preserve">
<g id="Layer_2" display="none">
</g>
<g id="Layer_3">
	<g>
		<g>
			<g>
				<g>
					<g>
						<path d="M299.3,61.8c-0.1-0.2-0.1-0.4-0.2-0.5c-0.1-0.2-0.1-0.4-0.2-0.6c-0.1,0.2-0.1,0.4-0.2,0.6c-0.1,0.2-0.1,0.4-0.2,0.5
							l-6.1,14.9h13L299.3,61.8z"/>
					</g>
				</g>
			</g>
		</g>
		<g>
			<g>
				<g>
					<g>
						<path d="M168.7,61.8c-0.1-0.2-0.1-0.4-0.2-0.5c-0.1-0.2-0.1-0.4-0.2-0.6c-0.1,0.2-0.1,0.4-0.2,0.6c-0.1,0.2-0.1,0.4-0.2,0.5
							l-6.1,14.9h13L168.7,61.8z"/>
					</g>
				</g>
			</g>
		</g>
		<g>
			<g>
				<g>
					<g>
						<path d="M97.8,67.5c-0.6-1.6-1.3-2.9-2.3-4c-1-1.1-2.2-1.9-3.6-2.5c-1.4-0.6-3-0.9-4.7-0.9c-1.7,0-3.2,0.3-4.6,0.9
							c-1.4,0.6-2.6,1.4-3.6,2.5c-1,1.1-1.8,2.4-2.4,4c-0.6,1.6-0.8,3.4-0.8,5.4c0,2,0.3,3.8,0.8,5.4c0.6,1.6,1.4,2.9,2.4,4
							c1,1.1,2.2,1.9,3.6,2.5c1.4,0.6,2.9,0.9,4.6,0.9c1.7,0,3.2-0.3,4.7-0.9c1.4-0.6,2.6-1.4,3.6-2.5c1-1.1,1.8-2.4,2.3-4
							s0.8-3.4,0.8-5.4C98.7,70.9,98.4,69.1,97.8,67.5z"/>
					</g>
				</g>
			</g>
		</g>
		<g>
			<g>
				<g>
					<g>
						<path d="M153.1,62.1c-1.4-1.2-3.4-1.8-6.1-1.8h-5.3v13.9h5.3c1.3,0,2.4-0.2,3.4-0.5c1-0.4,1.9-0.8,2.6-1.5
							c0.7-0.6,1.2-1.4,1.6-2.2c0.4-0.8,0.6-1.8,0.6-2.7C155.2,65,154.5,63.3,153.1,62.1z"/>
					</g>
				</g>
			</g>
		</g>
		<g>
			<g>
				<g>
					<g>
						<path d="M244.3,67.5c-0.6-1.6-1.3-2.9-2.3-4c-1-1.1-2.2-1.9-3.6-2.5c-1.4-0.6-3-0.9-4.7-0.9c-1.7,0-3.2,0.3-4.6,0.9
							c-1.4,0.6-2.6,1.4-3.6,2.5c-1,1.1-1.8,2.4-2.4,4s-0.8,3.4-0.8,5.4c0,2,0.3,3.8,0.8,5.4s1.4,2.9,2.4,4c1,1.1,2.2,1.9,3.6,2.5
							c1.4,0.6,2.9,0.9,4.6,0.9c1.7,0,3.2-0.3,4.7-0.9c1.4-0.6,2.6-1.4,3.6-2.5c1-1.1,1.8-2.4,2.3-4s0.8-3.4,0.8-5.4
							C245.1,70.9,244.8,69.1,244.3,67.5z"/>
					</g>
				</g>
			</g>
		</g>
		<g>
			<g>
				<g>
					<g>
						<path d="M349.4,62.1c-1.4-1.2-3.4-1.8-6.1-1.8H338v13.9h5.3c1.3,0,2.4-0.2,3.4-0.5c1-0.4,1.9-0.8,2.6-1.5
							c0.7-0.6,1.2-1.4,1.6-2.2c0.4-0.8,0.6-1.8,0.6-2.7C351.5,65,350.8,63.3,349.4,62.1z"/>
					</g>
				</g>
			</g>
		</g>
		<g>
			<g>
				<g>
					<g>
						<path d="M327.9,62.1c-1.4-1.2-3.4-1.8-6.1-1.8h-5.3v13.9h5.3c1.3,0,2.4-0.2,3.4-0.5c1-0.4,1.9-0.8,2.6-1.5
							c0.7-0.6,1.2-1.4,1.6-2.2c0.4-0.8,0.6-1.8,0.6-2.7C329.9,65,329.2,63.3,327.9,62.1z"/>
					</g>
				</g>
			</g>
		</g>
		<g>
			<g>
				<g>
					<g>
						<path d="M0,0v150h400V0H0z M69.4,84.3c-0.6,0.5-1.4,0.9-2.1,1.2c-0.8,0.3-1.6,0.6-2.5,0.8c-0.9,0.2-1.9,0.3-3,0.3
							c-1.8,0-3.5-0.3-5-1c-1.5-0.6-2.8-1.6-3.9-2.7c-1.1-1.2-2-2.6-2.6-4.3c-0.6-1.7-0.9-3.6-0.9-5.7c0-2,0.3-3.9,0.9-5.6
							c0.6-1.7,1.5-3.1,2.6-4.3s2.5-2.1,4.1-2.8c1.6-0.7,3.3-1,5.2-1c1.8,0,3.4,0.3,4.8,0.8c1.4,0.5,2.7,1.3,3.9,2.4l-0.3,0.4
							c-0.1,0.1-0.2,0.1-0.3,0.1c-0.1,0-0.2-0.1-0.4-0.2c-0.2-0.1-0.4-0.3-0.7-0.5c-0.3-0.2-0.7-0.4-1.1-0.7
							c-0.4-0.2-0.9-0.5-1.5-0.7c-0.6-0.2-1.2-0.4-1.9-0.5c-0.7-0.1-1.5-0.2-2.4-0.2c-1.7,0-3.3,0.3-4.8,0.9
							c-1.4,0.6-2.7,1.4-3.7,2.5c-1,1.1-1.8,2.4-2.4,4c-0.6,1.6-0.9,3.4-0.9,5.3c0,2,0.3,3.8,0.9,5.4c0.6,1.6,1.4,2.9,2.4,4
							c1,1.1,2.2,1.9,3.6,2.5c1.4,0.6,2.9,0.9,4.5,0.9c1,0,1.9-0.1,2.8-0.2c0.8-0.1,1.6-0.3,2.2-0.6c0.7-0.3,1.3-0.6,1.9-1
							c0.6-0.4,1.2-0.9,1.7-1.4c0.1-0.1,0.2-0.1,0.2-0.1c0.1,0,0.1,0,0.2,0.1l0.4,0.4C70.7,83.3,70.1,83.8,69.4,84.3z M98.8,78.5
							c-0.6,1.7-1.5,3.1-2.6,4.3c-1.1,1.2-2.4,2.1-4,2.7c-1.5,0.6-3.2,1-5.1,1c-1.8,0-3.5-0.3-5.1-1c-1.5-0.6-2.9-1.5-4-2.7
							c-1.1-1.2-2-2.6-2.6-4.3c-0.6-1.7-0.9-3.6-0.9-5.7c0-2.1,0.3-4,0.9-5.6c0.6-1.7,1.5-3.1,2.6-4.3c1.1-1.2,2.4-2.1,4-2.7
							c1.5-0.6,3.2-1,5.1-1c1.9,0,3.6,0.3,5.1,1c1.5,0.6,2.9,1.6,4,2.7c1.1,1.2,2,2.6,2.6,4.3c0.6,1.7,0.9,3.6,0.9,5.7
							C99.8,75,99.4,76.8,98.8,78.5z M132.1,86.2h-0.9V61.8c0-0.1,0-0.2,0-0.3s0-0.2,0-0.3L120,80.8c-0.1,0.2-0.3,0.3-0.5,0.3h-0.2
							c-0.2,0-0.3-0.1-0.5-0.3l-11.6-19.7c0,0.1,0,0.2,0,0.3c0,0.1,0,0.2,0,0.3v24.5h-0.9V59.5h0.6c0.1,0,0.2,0,0.3,0
							s0.1,0.1,0.2,0.2l11.6,19.7l0.3,0.7c0.1-0.1,0.1-0.2,0.2-0.4c0.1-0.1,0.1-0.2,0.2-0.4L131,59.7c0.1-0.1,0.1-0.2,0.2-0.2
							s0.2,0,0.3,0h0.6V86.2z M155.6,70.4c-0.4,1-1.1,1.8-1.9,2.5c-0.8,0.7-1.8,1.2-2.9,1.6c-1.1,0.4-2.4,0.6-3.8,0.6h-5.3v11.2h-1
							V59.5h6.4c3,0,5.3,0.6,6.9,1.9c1.6,1.3,2.3,3.2,2.3,5.8C156.2,68.4,156,69.4,155.6,70.4z M179.1,86.2c-0.2,0-0.3-0.1-0.4-0.3
							l-3.5-8.5h-13.7l-3.5,8.5c-0.1,0.2-0.2,0.3-0.4,0.3h-0.8l11.1-26.7h1l11.1,26.7H179.1z M204.9,86.2h-0.4
							c-0.2,0-0.3-0.1-0.4-0.2l-18.4-24.8c0,0.1,0,0.2,0,0.4c0,0.1,0,0.2,0,0.3v24.3h-0.9V59.5h0.5c0.1,0,0.2,0,0.2,0
							s0.1,0.1,0.2,0.2L204,84.4c0-0.1,0-0.2,0-0.3c0-0.1,0-0.2,0-0.3V59.5h0.9V86.2z M214.5,86.2h-1V59.5h1V86.2z M245.3,78.5
							c-0.6,1.7-1.5,3.1-2.6,4.3s-2.4,2.1-4,2.7c-1.5,0.6-3.2,1-5.1,1c-1.8,0-3.5-0.3-5.1-1c-1.5-0.6-2.9-1.5-4-2.7s-2-2.6-2.6-4.3
							c-0.6-1.7-0.9-3.6-0.9-5.7c0-2.1,0.3-4,0.9-5.6c0.6-1.7,1.5-3.1,2.6-4.3c1.1-1.2,2.4-2.1,4-2.7c1.5-0.6,3.2-1,5.1-1
							c1.9,0,3.6,0.3,5.1,1c1.5,0.6,2.9,1.6,4,2.7c1.1,1.2,2,2.6,2.6,4.3c0.6,1.7,0.9,3.6,0.9,5.7C246.2,75,245.9,76.8,245.3,78.5z
							 M273,86.2h-0.4c-0.2,0-0.3-0.1-0.4-0.2l-18.4-24.8c0,0.1,0,0.2,0,0.4c0,0.1,0,0.2,0,0.3v24.3h-0.9V59.5h0.5
							c0.1,0,0.2,0,0.2,0s0.1,0.1,0.2,0.2l18.3,24.7c0-0.1,0-0.2,0-0.3c0-0.1,0-0.2,0-0.3V59.5h0.9V86.2z M309.6,86.2
							c-0.2,0-0.3-0.1-0.4-0.3l-3.5-8.5H292l-3.5,8.5c-0.1,0.2-0.2,0.3-0.4,0.3h-0.8l11.1-26.7h1l11.1,26.7H309.6z M330.3,70.4
							c-0.4,1-1.1,1.8-1.9,2.5c-0.8,0.7-1.8,1.2-2.9,1.6s-2.4,0.6-3.8,0.6h-5.3v11.2h-1V59.5h6.4c3,0,5.3,0.6,6.9,1.9
							s2.3,3.2,2.3,5.8C331,68.4,330.8,69.4,330.3,70.4z M351.9,70.4c-0.4,1-1.1,1.8-1.9,2.5c-0.8,0.7-1.8,1.2-2.9,1.6
							s-2.4,0.6-3.8,0.6H338v11.2h-1V59.5h6.4c3,0,5.3,0.6,6.9,1.9s2.3,3.2,2.3,5.8C352.5,68.4,352.3,69.4,351.9,70.4z"/>
					</g>
				</g>
			</g>
		</g>
	</g>
</g>
</svg>
