<?xml version="1.0" encoding="utf-8"?>
<!-- Generator: Adobe Illustrator 18.1.1, SVG Export Plug-In . SVG Version: 6.00 Build 0)  -->
<svg version="1.1" id="Ebene_1" xmlns="http://www.w3.org/2000/svg" xmlns:xlink="http://www.w3.org/1999/xlink" x="0px" y="0px"
	 viewBox="0 0 552.2 218" enable-background="new 0 0 552.2 218" xml:space="preserve">
<g>
	<g>
		<path fill-rule="evenodd" clip-rule="evenodd" fill="#FFFFFF" d="M345.1,25.2c-0.7,8.6-1.7,16.9-2.4,25.4c-3.4,5-7,10-10.5,15.1
			c-1.1,1.7-2,3.5-3.5,4.9c-8.8-4.8-17.9-9.4-26.7-14.3c-0.2-3.1-1-5.8-1.3-8.9c1,0.1,2.3-0.2,3,0.2c0.4,2.3,0.7,4.6,1.1,6.8
			c7.2,3.9,14.5,7.7,21.8,11.6c0.8-7.8,0.9-16.2,1.3-24.3c-8.7-3.3-17.7-6.3-26.5-9.5c0.1,1.8,0.7,4.5,1,6.7c-1,0-2,0-3,0
			c-0.6-3.2-1.1-6.5-1.6-9.9c0.6-0.6,1.4-1.2,2.2-1.6c5.4-2.9,11.3-6.3,16.8-9.1c0.2-0.1,0.3-0.4,0.6-0.3
			C326.1,20.2,335.8,22.8,345.1,25.2z M317.7,21.2c-5,2.7-10,5.5-14.9,8.3c7.4,2.8,15.4,5.3,23,8.1c1.2,0.4,2.6,1.2,3.3,1.1
			c0.8-0.1,2.1-1.9,2.9-2.7c3-3.1,5.6-5.9,8.3-8.9C332.8,25.1,325.2,23.2,317.7,21.2z M333.5,39c-0.9,1-2.3,1.8-2.5,2.7
			c-0.4,1.5-0.1,3.7-0.2,5.4c-0.2,5.6-0.6,10.8-0.8,16.4c2.3-3,5.1-7,7.5-10.5c0.9-1.3,2.1-2.7,2.4-3.8c0.4-1.4,0.2-3.2,0.3-4.8
			c0.5-4.5,1.2-10.1,1.3-14C339,33,336.1,36.1,333.5,39z"/>
		<path fill-rule="evenodd" clip-rule="evenodd" fill="#FFFFFF" d="M202.7,22.4c0.2,6.2,0.2,12.2,0.2,18.6c0,2,0.4,4.2,0.2,6
			c-0.1,1.3-1.3,3.6-1.9,5.1c-1.9,4.7-4.1,10.2-6,14.6c-11.1-1.6-21.9-3.4-32.7-5.2c-0.4-8.4-1-17-1.4-25.6
			c-0.1-1.2-0.3-2.8-0.2-3.7c0.2-1.1,1.9-2,3.2-3c3.6-3,7.3-6.1,10.6-8.7C184.1,21,193.3,21.8,202.7,22.4z M175.7,23.6
			c-3.1,2.6-6.9,5.4-9.9,7.9c-0.4,0.3-1.3,0.9-0.8,1.1c9,1.2,18.4,2,27.5,3.2c2.1-3.6,4.4-6.9,6.4-10.6
			C191,24.7,183.4,24.1,175.7,23.6z M196.8,34.4c-0.7,1.1-2.2,3.2-2.4,4.3c-0.3,1.5,0,3.6,0,5.2c0.1,5.3,0.2,10.5,0.5,15.6
			c1-3,2.6-6.5,3.8-9.5c0.4-1.1,1.2-2.3,1.3-3.2c0.1-1-0.2-2.6-0.2-4c0-4,0.1-9.5-0.2-12.9C199,31.3,197.9,32.6,196.8,34.4z
			 M164.1,35.6c0.1,7.4,0.9,15.5,1.1,23.4c8.9,1.4,17.8,2.9,26.7,4.3c-0.2-8.1-0.5-16.2-0.5-24.5C182.6,37.5,173.1,36.8,164.1,35.6z
			"/>
		<path fill-rule="evenodd" clip-rule="evenodd" fill="#FFFFFF" d="M252.9,24.8c1.9,0,3.7,0,5.6,0c0,0.7,0,1.5,0,2.2
			c-1.9,0-3.7,0-5.6,0C252.9,26.3,252.9,25.6,252.9,24.8z"/>
		<path fill-rule="evenodd" clip-rule="evenodd" fill="#FFFFFF" d="M265.4,24.8c9.2,0,18.3,0,27.5,0c0,0.7,0,1.5,0,2.2
			c-9.2,0-18.4,0-27.6,0C265.4,26.4,265.1,25.3,265.4,24.8z"/>
		<path fill-rule="evenodd" clip-rule="evenodd" fill="#FFFFFF" d="M46.8,25.9c11.4,0,22.9,0,34.3,0c0,11.5,0,23,0,34.5
			c-11.5,0-23,0-34.5,0c0-11.3,0-22.7,0-34C46.6,26.2,46.6,26,46.8,25.9z M49.7,29.4c0,9.3,0,18.6,0,28c9.5,0,19,0,28.4,0
			c0-9.5,0-19,0-28.4c-9.4,0-18.9,0-28.3,0C49.6,29,49.6,29.2,49.7,29.4z"/>
		<path fill-rule="evenodd" clip-rule="evenodd" fill="#FFFFFF" d="M129.1,44.2c-4.9-2.7-8.2-4.2-13.2-6.8c-1.3-0.7-3.9-1.5-4-2.7
			c-0.1-0.7,0.5-1.8,1.4-1.7c1.8,0.1,3.6,1.6,5.6,2.5c3.6,1.8,7,3.5,10.8,5.4c1.9,1,4.6,2.1,4.6,3.3c0,1.4-3.2,2.6-4.8,3.3
			c-4.8,2.3-8.9,3.9-13.8,6.2c-1.4,0.6-3.9,2.1-4.1-0.3c-0.1-1.6,2.4-2.2,3.8-2.9C120.5,48.2,123.9,46.6,129.1,44.2z"/>
		<path fill-rule="evenodd" clip-rule="evenodd" fill="#FFFFFF" d="M248.8,44.2c-4.9-2.6-8.2-4.2-13.2-6.7c-1.2-0.6-3.8-1.7-4-2.5
			c-0.2-0.8,0.3-2.1,1.3-2.1c1.9,0.1,3.7,1.6,5.6,2.5c3.4,1.7,6.9,3.3,10.6,5.2c1.3,0.7,4.6,2,4.8,3.2c0.3,1.7-2.5,2.5-4.6,3.5
			c-4.6,2.1-9.1,4-14,6.4c-1.3,0.6-4.2,2.3-4-0.6c0.1-1.3,2.5-2,4-2.7C240.2,48.1,243.6,46.5,248.8,44.2z"/>
		<path fill-rule="evenodd" clip-rule="evenodd" fill="#FFFFFF" d="M280.2,42c9.2,0,18.3,0,27.5,0c0,0.7,0,1.5,0,2.2
			c-9.2,0-18.4,0-27.6,0C280.2,43.5,279.9,42.4,280.2,42z"/>
		<path fill-rule="evenodd" clip-rule="evenodd" fill="#FFFFFF" d="M252.7,56.3c5.7,0,11.4,0,17.2,0c0,0.7,0,1.5,0,2.2
			c-5.8,0-11.5,0-17.3,0C252.7,57.8,252.4,56.7,252.7,56.3z"/>
		<path fill-rule="evenodd" clip-rule="evenodd" fill="#FFFFFF" d="M274.8,56.3c6.9,0,13.9,0,20.8,0c0,0.7,0,1.5,0,2.2
			c-7,0-14,0-21,0C274.8,57.8,274.5,56.7,274.8,56.3z"/>
		<path fill-rule="evenodd" clip-rule="evenodd" fill="#FFFFFF" d="M223.3,103.8c1.9,0,3.7,0,5.6,0c0,9,0,20.1,0,30.4
			c0,3.5-0.3,7.1,1,9.1c0.9,1.4,2.8,2.2,4.6,2.2c0,1.7,0,3.5,0,5.2c-5.6,0-10-1.9-11.1-6.7c-0.6-2.6-0.3-6.1-0.3-9.7
			c0-9.2,0-21.7,0-30C223,104,223.1,103.9,223.3,103.8z"/>
		<path fill-rule="evenodd" clip-rule="evenodd" fill="#FFFFFF" d="M339.8,103.8c0.4,4.8,0.1,10.3,0.2,15.4c2.4-1.4,4.6-2.8,8.9-2.5
			c7.9,0.6,13.2,7.1,13.7,14.9c0.3,5.3-1,11.3-4.8,15.1c-3,3-9.3,5.5-15.4,3.2c-1.2-0.5-2.1-1.3-3.3-2.1c-0.7,0.9-1.3,1.9-2.1,2.9
			c-1,0-1.9,0-2.9,0c0.1-15.6-0.2-31.6,0.2-46.9C336.1,103.8,338,103.8,339.8,103.8z M354.3,142.4c1.9-2.5,2.4-7.2,2.1-10.8
			c-0.5-5.9-5.2-10.6-11.3-10c-1.4,0.1-4.7,1.6-5.1,2.7c-0.4,1.1,0,3.1,0,4.6c0,4.9,0,9.6,0,14.3
			C343.4,146.9,351.5,146.2,354.3,142.4z"/>
		<path fill-rule="evenodd" clip-rule="evenodd" fill="#FFFFFF" d="M248.9,117.2c2.7,0.4,6.1,0.1,9.1,0.2c0,1.5,0,3.1,0,4.6
			c-3,0-5.9,0-8.9,0c-0.3,3.1-0.2,7.2-0.2,11.1c0,3.9-0.3,7.8,1,10.2c1.6,3,6.1,3,9.5,1.4c0.4,1.6,0.6,3.4,1,5.1
			c-5.8,1.7-12.1,1.2-14.9-2.2c-4.3-5.3-1.6-16.4-2.4-25.6c-1.2,0-2.4,0-3.7,0c0-1.5,0-3.1,0-4.6c1.2,0,2.3,0,3.5,0
			c0.4-2,0.1-4.6,0.2-6.8c1.9-0.8,3.8-1.5,5.7-2.2C249.1,110.9,248.8,114.2,248.9,117.2z"/>
		<path fill-rule="evenodd" clip-rule="evenodd" fill="#FFFFFF" d="M216,134.3c-7.8,0-15.7,0-23.5,0c0.1,6.7,3.7,11.3,10.2,11.4
			c3.4,0.1,6.2-1.3,8.6-2.9c0.8,1.4,1.4,2.8,2.4,4c-3,2.5-7.1,4.2-12.7,3.8c-5.8-0.4-10.3-3.5-12.7-8.4
			c-5.3-10.7,0.9-24.5,11.9-25.6C211.7,115.6,218.2,123.4,216,134.3z M201.1,121.6c-4.6,0.4-7.9,3.8-8.3,8.4
			c5.9-0.1,12.3,0.2,18-0.2C210.5,124.5,206.6,121.1,201.1,121.6z"/>
		<path fill-rule="evenodd" clip-rule="evenodd" fill="#FFFFFF" d="M293.4,134.3c-7.8,0-15.7,0-23.5,0c-0.7,8.9,7.4,13.5,15.3,10.5
			c1.2-0.5,2.1-1.2,3.3-1.9c0.8,1.4,1.7,2.7,2.4,4.3c-3.4,2.3-7.3,3.8-12.7,3.5c-9.6-0.6-15.1-8.5-14.5-18.4
			c0.6-8.7,6.7-16.3,17-15.6C289.8,117.3,295.4,124.1,293.4,134.3z M284.7,123c-5.7-3.8-14.6,0.2-14.6,7c6,0,12,0,18,0
			C288,126.9,286.7,124.4,284.7,123z"/>
		<path fill-rule="evenodd" clip-rule="evenodd" fill="#FFFFFF" d="M325.8,150c-2,0-3.9,0-5.9,0c-0.4-6.4,0.5-15.1,0-21.5
			c-0.1-1.8-0.6-3.8-1.4-4.9c-2.9-3.9-10.8-1.7-12.7,2.1c0,8.1,0,16.2,0,24.3c-2,0-3.9,0-5.9,0c0-10.9,0-21.8,0-32.7
			c1.4,0,2.8,0,4.1,0c0.4,1.4,1,2.6,1.6,3.8c1.2-0.9,2-2.3,3.5-3.2c3.8-2.1,10.7-1.4,13.5,1.3C328.4,124.8,324.8,139.3,325.8,150z"
			/>
		<path fill-rule="evenodd" clip-rule="evenodd" fill="#FFFFFF" d="M395.1,150.7c-3.9-0.1-6.8-1-7.6-4.1c-4.2,4.6-13.5,5.8-17.8,1.1
			c-1.5-1.6-2.6-4.1-2.5-7c0.2-8.6,10.6-13.4,19.5-11c0-3.1-0.7-5.7-3-7c-3.8-2.2-9.8-0.1-12.4,2.1c-0.8-1.7-1.7-3.2-2.4-4.9
			c5.4-4.3,17.9-4.6,21.8,1.4c1.8,2.7,2,6.4,2.1,10.2c0.1,5.4-1.3,14.3,2.5,16.4C395.2,148.7,395.5,150,395.1,150.7z M373,140.8
			c-0.1,4.1,3.4,5.7,7.5,5.1c2.6-0.4,5.9-2.6,6.4-4.4c0.6-2.4-0.4-4.8,0-7.5C380.5,132,373.2,135.1,373,140.8z"/>
		<path fill-rule="evenodd" clip-rule="evenodd" fill="#FFFFFF" d="M463.4,134.3c-7.8,0-15.7,0-23.5,0c-0.6,8.8,7.4,13.5,15.3,10.5
			c1.2-0.5,2.1-1.2,3.3-1.9c0.8,1.4,1.7,2.7,2.4,4.3c-3.5,2.3-7.4,3.9-12.9,3.5c-9.5-0.6-15-8.6-14.3-18.4c0.6-8.7,6.7-16.3,17-15.6
			C459.8,117.3,465.5,124.1,463.4,134.3z M454.7,123c-5.7-3.8-14.6,0.2-14.6,7c6,0,12,0,18,0C458,126.9,456.7,124.4,454.7,123z"/>
		<path fill-rule="evenodd" clip-rule="evenodd" fill="#FFFFFF" d="M490.1,117.2c-0.6,2.1-1.7,3.6-2.2,5.7c-1.9-1.1-4.3-1.7-6.7-0.6
			c-2.3,1.1-4.6,4-4.9,7.5c-0.6,5.9,0.5,14,0,20.3c-2,0-3.9,0-5.9,0c0-10.9,0-21.8,0-32.7c2,0,3.9,0,5.9,0c0,1.5,0,3.1,0,4.6
			c0.8-0.5,1.2-1.7,2.1-2.5C481,116.9,485.4,116.1,490.1,117.2z"/>
		<path fill-rule="evenodd" clip-rule="evenodd" fill="#FFFFFF" d="M138.3,117.2c2.1,0,4.2,0,6.4,0c2.2,7.2,4.6,14.1,6.8,21.3
			c2.4-5.4,5.2-12.7,7.8-18.9c0.5-1.1,0.5-2.7,2.1-2.4c0.9,0.2,1,1.5,1.4,2.5c2.6,6.2,5.5,12.6,7.9,18.8c2.6-7,5-14.1,7.5-21.3
			c2,0,3.9,0,5.9,0c-4,11.1-7.7,22.6-11.9,33.5c-1.6,0.6-1.8-1-2.2-1.9c-2.8-6.4-6-13.6-8.7-20.2c-2.9,6.3-5.6,12.9-8.4,19.5
			c-0.4,0.8-0.7,1.9-1.4,2.5c-1.8,0.6-2.1-2.3-2.7-4c-3.4-9.5-7-20.1-10.2-29.1C138.4,117.5,138.3,117.4,138.3,117.2z"/>
		<path fill-rule="evenodd" clip-rule="evenodd" fill="#FFFFFF" d="M401.6,117.3c1.9,0,3.8,0,5.7,0c0.6,7-0.7,16,0,22.7
			c0.3,2.4,1.6,4.3,3.2,5.1c4.5,2.1,10-1,11.6-4.6c0-7.7,0-15.5,0-23.2c2,0,3.9,0,5.9,0c0,10.9,0,21.8,0,32.7c-2,0-3.9,0-5.9,0
			c0-1.4,0-2.8,0-4.1c-2,2.2-4.9,4.6-9.1,4.8c-6.8,0.4-11-3.6-11.6-9.5c-0.7-6.7,0.5-15.9,0-23.4
			C401.5,117.6,401.4,117.3,401.6,117.3z"/>
		<path fill-rule="evenodd" clip-rule="evenodd" fill="#FFFFFF" d="M499.7,141.6c2.5-0.6,4.8,0.5,5.6,2.4c1.3,3-1.5,8.3-6.2,6.4
			c-1.6-0.7-3.7-3.1-2.4-6.4C497.1,142.9,498.2,142,499.7,141.6z"/>
	</g>
	<g>
		<path fill="#FFFFFF" d="M147.1,189.2l0.8-2.2c1.3,0.8,2.3,1.2,3.1,1.2c1.4,0,2.1-0.6,2.1-1.8c0-0.8-0.7-1.6-2-2.2
			c-1-0.5-1.7-0.8-2.1-1.1c-0.4-0.2-0.7-0.5-0.9-0.8c-0.3-0.3-0.5-0.7-0.6-1c-0.1-0.4-0.2-0.7-0.2-1.1c0-1.1,0.4-1.9,1.1-2.5
			c0.8-0.6,1.8-0.9,3-0.9c0.9,0,2.1,0.3,3.5,0.9l-0.6,2.1c-0.9-0.7-1.8-1.1-2.7-1.1c-0.5,0-1,0.1-1.4,0.4c-0.4,0.3-0.6,0.6-0.6,1
			c0,0.8,0.5,1.4,1.4,1.9l1.6,0.7c1,0.5,1.7,1,2.2,1.6c0.5,0.6,0.7,1.3,0.7,2.2c0,1.1-0.4,2-1.2,2.7c-0.8,0.7-1.9,1-3.4,1
			C149.6,190.2,148.3,189.9,147.1,189.2z"/>
		<path fill="#FFFFFF" d="M157,183.5c0-2,0.5-3.6,1.6-4.8c1.1-1.2,2.5-1.8,4.2-1.8c1.8,0,3.3,0.6,4.3,1.8c1,1.2,1.5,2.8,1.5,4.9
			c0,2.1-0.5,3.7-1.6,4.9c-1,1.2-2.5,1.8-4.2,1.8c-1.8,0-3.3-0.6-4.3-1.8C157.5,187.2,157,185.6,157,183.5z M159.4,183.5
			c0,3.2,1.1,4.8,3.4,4.8c1.1,0,1.9-0.4,2.5-1.3c0.6-0.9,0.9-2,0.9-3.5c0-3.2-1.1-4.8-3.4-4.8c-1,0-1.9,0.4-2.5,1.3
			C159.7,180.9,159.4,182,159.4,183.5z"/>
		<path fill="#FFFFFF" d="M178,173.9c-0.5-0.2-0.9-0.2-1.3-0.2c-0.7,0-1.3,0.3-1.7,0.8c-0.5,0.5-0.7,1.2-0.7,2c0,0.2,0,0.4,0.1,0.7
			h2.6v1.9h-2.6V190h-2.3v-10.9h-1.9v-1.9h1.9c0-1.6,0.4-2.9,1.2-3.9c0.8-0.9,1.9-1.4,3.2-1.4c0.7,0,1.4,0.1,2.1,0.4L178,173.9z"/>
		<path fill="#FFFFFF" d="M180.9,178.9h-1.5v-1.8h1.5v-2.7l2.3-0.9v3.6h3.5v1.8h-3.5v6.4c0,1.1,0.2,1.8,0.5,2.3
			c0.4,0.5,0.9,0.7,1.8,0.7c0.6,0,1.2-0.1,1.8-0.4l0.3,2c-0.9,0.2-2,0.4-3.1,0.4c-1,0-1.9-0.4-2.6-1.1c-0.7-0.8-1-1.7-1-2.9V178.9z"
			/>
		<path fill="#FFFFFF" d="M201.7,190.2h-0.6l-3.8-8.7l-3.7,8.7H193l-4.6-13.1h2.4l2.7,8.4l3.4-8.4h0.6l3.5,8.4l2.9-8.4h2.2
			L201.7,190.2z"/>
		<path fill="#FFFFFF" d="M215.3,188.5c-0.9,1.1-2.3,1.7-4.2,1.7c-1,0-1.9-0.4-2.6-1.1c-0.7-0.7-1.1-1.6-1.1-2.7
			c0-1.3,0.6-2.4,1.7-3.3c1.1-0.9,2.6-1.3,4.4-1.3c0.5,0,1,0.1,1.6,0.3c0-2.1-0.9-3.1-2.8-3.1c-1.4,0-2.5,0.4-3.3,1.1l-1-1.9
			c0.4-0.4,1-0.7,1.8-0.9c0.8-0.3,1.5-0.4,2.2-0.4c1.9,0,3.2,0.4,4.1,1.3c0.8,0.8,1.3,2.2,1.3,4v4.6c0,1.1,0.3,1.9,1,2.3v1.1
			c-0.9,0-1.6-0.1-2.1-0.4C215.8,189.5,215.5,189.1,215.3,188.5z M215.1,183.7c-0.7-0.2-1.2-0.2-1.5-0.2c-1.1,0-2.1,0.3-2.8,0.9
			c-0.7,0.6-1.1,1.3-1.1,2.1c0,1.3,0.8,2,2.4,2c1.1,0,2.2-0.5,3.1-1.6V183.7z"/>
		<path fill="#FFFFFF" d="M227.9,179.3c-0.5-0.3-1-0.5-1.5-0.5c-0.8,0-1.5,0.4-2.1,1.1c-0.6,0.7-0.9,1.6-0.9,2.7v7.4h-2.3v-12.8h2.3
			v2c0.8-1.5,2.1-2.3,3.7-2.3c0.4,0,1,0.1,1.8,0.2L227.9,179.3z"/>
		<path fill="#FFFFFF" d="M241.3,183.8H232c0,1.5,0.4,2.7,1.2,3.5c0.7,0.7,1.7,1.1,2.8,1.1c1.3,0,2.4-0.4,3.3-1.1l1,1.6
			c-0.4,0.4-0.9,0.7-1.6,0.9c-0.9,0.3-1.9,0.5-3,0.5c-1.6,0-3-0.5-4.1-1.6c-1.3-1.2-1.9-2.8-1.9-4.9c0-2.1,0.6-3.8,1.9-5.1
			c1.1-1.1,2.5-1.7,4.1-1.7c1.8,0,3.3,0.5,4.3,1.5c1,1,1.5,2.3,1.5,3.9C241.4,182.9,241.4,183.4,241.3,183.8z M235.7,178.8
			c-1,0-1.9,0.3-2.5,1c-0.7,0.6-1,1.4-1.1,2.3h7.1c0-0.9-0.3-1.7-0.9-2.3C237.7,179.2,236.8,178.8,235.7,178.8z"/>
		<path fill="#FFFFFF" d="M262,183.8h-9.2c0,1.5,0.4,2.7,1.2,3.5c0.7,0.7,1.7,1.1,2.8,1.1c1.3,0,2.4-0.4,3.3-1.1l1,1.6
			c-0.4,0.4-0.9,0.7-1.6,0.9c-0.9,0.3-1.9,0.5-3,0.5c-1.6,0-3-0.5-4.1-1.6c-1.3-1.2-1.9-2.8-1.9-4.9c0-2.1,0.6-3.8,1.9-5.1
			c1.1-1.1,2.5-1.7,4.1-1.7c1.8,0,3.3,0.5,4.3,1.5c1,1,1.5,2.3,1.5,3.9C262.2,182.9,262.1,183.4,262,183.8z M256.5,178.8
			c-1,0-1.9,0.3-2.5,1c-0.7,0.6-1,1.4-1.1,2.3h7.1c0-0.9-0.3-1.7-0.9-2.3C258.4,179.2,257.6,178.8,256.5,178.8z"/>
		<path fill="#FFFFFF" d="M272.5,190v-7.5c0-1.4-0.2-2.3-0.6-2.9c-0.4-0.5-1.1-0.8-2.1-0.8c-0.5,0-1.1,0.2-1.6,0.5
			c-0.6,0.3-1,0.7-1.3,1.1v9.5h-2.3v-12.8h1.6l0.7,1.7c0.7-1.3,2-1.9,3.7-1.9c2.8,0,4.2,1.7,4.2,5.1v7.9H272.5z"/>
		<path fill="#FFFFFF" d="M278.8,178.9h-1.5v-1.8h1.5v-2.7l2.3-0.9v3.6h3.5v1.8h-3.5v6.4c0,1.1,0.2,1.8,0.5,2.3
			c0.4,0.5,0.9,0.7,1.8,0.7c0.6,0,1.2-0.1,1.8-0.4l0.3,2c-0.9,0.2-2,0.4-3.1,0.4c-1,0-1.9-0.4-2.6-1.1c-0.7-0.8-1-1.7-1-2.9V178.9z"
			/>
		<path fill="#FFFFFF" d="M299.6,190.2H299l-3.8-8.7l-3.7,8.7h-0.6l-4.6-13.1h2.4l2.7,8.4l3.4-8.4h0.6l3.5,8.4l2.9-8.4h2.2
			L299.6,190.2z"/>
		<path fill="#FFFFFF" d="M307.1,190v-10.9h-1.8v-1.9h4V190H307.1z M308.3,172.3c0.4,0,0.7,0.1,1,0.4c0.3,0.3,0.4,0.6,0.4,1
			c0,0.4-0.1,0.7-0.4,1c-0.3,0.3-0.6,0.4-1,0.4c-0.4,0-0.7-0.1-1-0.4c-0.3-0.3-0.4-0.6-0.4-1c0-0.4,0.1-0.7,0.4-1
			C307.6,172.4,307.9,172.3,308.3,172.3z"/>
		<path fill="#FFFFFF" d="M322.6,178.2l-1.1,1.6c-0.2-0.2-0.6-0.5-1.2-0.7c-0.6-0.2-1.2-0.3-1.7-0.3c-1.2,0-2.2,0.4-2.9,1.3
			c-0.7,0.9-1.1,2.1-1.1,3.6c0,1.5,0.4,2.6,1.1,3.4c0.7,0.8,1.8,1.2,3.1,1.2c1,0,2.1-0.4,3.1-1.2l0.9,1.9c-1.2,0.8-2.7,1.2-4.5,1.2
			c-1.7,0-3.2-0.6-4.3-1.8c-1.1-1.2-1.7-2.8-1.7-4.8c0-2,0.6-3.7,1.8-4.9c1.2-1.2,2.8-1.9,4.9-1.9c0.7,0,1.4,0.1,2.2,0.4
			C321.7,177.6,322.3,177.9,322.6,178.2z"/>
		<path fill="#FFFFFF" d="M333.4,190l-4-6.4l-2,2v4.4h-2.3v-18.1h2.3v11.2l4.9-6h2.7l-4.1,4.9l5,7.9H333.4z"/>
		<path fill="#FFFFFF" d="M337.6,186.3v-14.5h2.3V186c0,0.7,0.2,1.2,0.6,1.6c0.4,0.4,0.9,0.6,1.6,0.6v2
			C339.1,190.2,337.6,188.9,337.6,186.3z"/>
		<path fill="#FFFFFF" d="M346.8,177.1v8.2c0,2,0.9,3,2.6,3c0.8,0,1.4-0.2,2.1-0.6c0.6-0.4,1-0.9,1.2-1.5v-9h2.3V190h-2.3v-1.8
			c-0.3,0.5-0.8,1-1.5,1.4c-0.8,0.4-1.5,0.6-2.3,0.6c-1.4,0-2.5-0.4-3.2-1.2c-0.7-0.8-1.1-2-1.1-3.4v-8.4H346.8z"/>
		<path fill="#FFFFFF" d="M366,190v-7.5c0-1.4-0.2-2.3-0.6-2.9c-0.4-0.5-1.1-0.8-2.1-0.8c-0.5,0-1.1,0.2-1.6,0.5
			c-0.6,0.3-1,0.7-1.3,1.1v9.5h-2.3v-12.8h1.6l0.7,1.7c0.8-1.3,2-1.9,3.7-1.9c2.8,0,4.2,1.7,4.2,5.1v7.9H366z"/>
		<path fill="#FFFFFF" d="M371,193.5l1.2-1.8c1.3,0.9,2.5,1.3,3.7,1.3c1,0,1.8-0.2,2.4-0.5c0.6-0.4,0.9-0.8,0.9-1.3
			c0-1-0.8-1.6-2.3-1.6c-0.3,0-0.7,0.1-1.4,0.2c-0.7,0.1-1.2,0.2-1.6,0.2c-1.8,0-2.7-0.7-2.7-2.1c0-0.4,0.2-0.8,0.6-1.1
			c0.4-0.3,1-0.6,1.6-0.7c-1.8-0.8-2.7-2.3-2.7-4.4c0-1.3,0.5-2.5,1.4-3.4c0.9-0.9,2.1-1.3,3.5-1.3c1.3,0,2.2,0.3,3,0.8l1.1-1.4
			l1.5,1.4l-1.4,1c0.6,0.8,0.9,1.7,0.9,3c0,1.3-0.4,2.4-1.2,3.3c-0.8,0.9-1.9,1.4-3.2,1.5l-1.9,0.2c-0.2,0-0.5,0.1-0.9,0.3
			c-0.4,0.1-0.6,0.3-0.6,0.6c0,0.3,0.4,0.5,1.2,0.5c0.3,0,0.9-0.1,1.6-0.2c0.7-0.1,1.3-0.2,1.6-0.2c1.3,0,2.2,0.3,3,0.9
			c0.7,0.6,1.1,1.4,1.1,2.5c0,1.2-0.5,2.1-1.6,2.9c-1.1,0.7-2.4,1.1-4,1.1c-0.8,0-1.7-0.1-2.6-0.4
			C372.3,194.3,371.6,193.9,371,193.5z M375.8,178.7c-0.8,0-1.4,0.3-1.9,0.8c-0.5,0.6-0.7,1.2-0.7,2c0,0.9,0.2,1.6,0.7,2.2
			c0.5,0.6,1.1,0.9,2,0.9c0.8,0,1.4-0.3,1.9-0.9c0.5-0.6,0.7-1.3,0.7-2.2c0-0.8-0.2-1.5-0.7-2C377.2,179,376.6,178.7,375.8,178.7z"
			/>
		<path fill="#FFFFFF" d="M390.7,193.5l1.2-1.8c1.3,0.9,2.5,1.3,3.7,1.3c1,0,1.8-0.2,2.4-0.5c0.6-0.4,0.9-0.8,0.9-1.3
			c0-1-0.8-1.6-2.3-1.6c-0.3,0-0.7,0.1-1.4,0.2c-0.7,0.1-1.2,0.2-1.6,0.2c-1.8,0-2.7-0.7-2.7-2.1c0-0.4,0.2-0.8,0.6-1.1
			c0.4-0.3,1-0.6,1.6-0.7c-1.8-0.8-2.7-2.3-2.7-4.4c0-1.3,0.5-2.5,1.4-3.4c0.9-0.9,2.1-1.3,3.5-1.3c1.3,0,2.2,0.3,3,0.8l1.1-1.4
			l1.5,1.4l-1.4,1c0.6,0.8,0.9,1.7,0.9,3c0,1.3-0.4,2.4-1.2,3.3c-0.8,0.9-1.9,1.4-3.2,1.5l-1.9,0.2c-0.2,0-0.5,0.1-0.9,0.3
			c-0.4,0.1-0.6,0.3-0.6,0.6c0,0.3,0.4,0.5,1.2,0.5c0.3,0,0.9-0.1,1.6-0.2c0.7-0.1,1.3-0.2,1.6-0.2c1.3,0,2.2,0.3,3,0.9
			c0.7,0.6,1.1,1.4,1.1,2.5c0,1.2-0.5,2.1-1.6,2.9c-1.1,0.7-2.4,1.1-4,1.1c-0.8,0-1.7-0.1-2.6-0.4
			C392,194.3,391.3,193.9,390.7,193.5z M395.5,178.7c-0.8,0-1.4,0.3-1.9,0.8c-0.5,0.6-0.7,1.2-0.7,2c0,0.9,0.2,1.6,0.7,2.2
			c0.5,0.6,1.1,0.9,2,0.9c0.8,0,1.4-0.3,1.9-0.9c0.5-0.6,0.7-1.3,0.7-2.2c0-0.8-0.2-1.5-0.7-2C396.9,179,396.3,178.7,395.5,178.7z"
			/>
		<path fill="#FFFFFF" d="M418.3,190v-8.1c0-2-0.9-3-2.6-3c-0.6,0-1.1,0.2-1.5,0.5c-0.5,0.3-0.8,0.7-1,1.2v9.5h-2.3v-9.1
			c0-0.6-0.2-1.1-0.7-1.5c-0.5-0.4-1.1-0.5-1.9-0.5c-0.5,0-0.9,0.2-1.5,0.5c-0.5,0.4-0.9,0.7-1.1,1.2v9.5h-2.3v-12.8h1.5l0.8,1.5
			c0.9-1.1,2-1.7,3.3-1.7c1.8,0,3.1,0.6,3.9,1.7c0.3-0.5,0.7-0.9,1.4-1.2c0.7-0.3,1.4-0.5,2.1-0.5c1.3,0,2.4,0.4,3.1,1.2
			c0.7,0.8,1.1,1.9,1.1,3.3v8.6H418.3z"/>
		<path fill="#FFFFFF" d="M425.8,189l-0.8,1.2h-1.1v-18.3h2.3v6.2c0.2-0.3,0.6-0.6,1.2-0.8c0.6-0.2,1.2-0.4,1.8-0.4
			c1.8,0,3.2,0.6,4.3,1.8c1.1,1.2,1.6,2.7,1.6,4.6c0,2.1-0.5,3.8-1.6,5c-1.1,1.2-2.6,1.8-4.4,1.8c-0.6,0-1.2-0.1-1.8-0.3
			C426.5,189.6,426.1,189.4,425.8,189z M426.1,179.8v7.4c0,0.1,0.3,0.3,0.8,0.6c0.6,0.3,1,0.4,1.3,0.4c1.5,0,2.7-0.4,3.3-1.1
			c0.7-0.7,1-2,1-3.7c0-1.5-0.4-2.6-1.2-3.4c-0.8-0.8-1.8-1.2-3.2-1.2c-0.3,0-0.7,0.1-1.2,0.4C426.6,179.4,426.3,179.6,426.1,179.8z
			"/>
		<path fill="#FFFFFF" d="M445.4,190v-8.1c0-1-0.2-1.7-0.7-2.3c-0.5-0.6-1.1-0.8-2-0.8c-0.6,0-1.1,0.2-1.7,0.5
			c-0.6,0.3-1,0.7-1.3,1.1v9.5h-2.3v-18.1h2.3v6.7c0.3-0.5,0.8-0.9,1.5-1.2c0.7-0.3,1.4-0.5,2.1-0.5c1.4,0,2.4,0.4,3.2,1.3
			c0.8,0.9,1.2,2.1,1.2,3.7v8.1H445.4z"/>
	</g>
</g>
</svg>
