<?xml version="1.0" encoding="utf-8"?>
<!-- Generator: Adobe Illustrator 18.1.1, SVG Export Plug-In . SVG Version: 6.00 Build 0)  -->
<svg version="1.1" id="Ebene_1" xmlns="http://www.w3.org/2000/svg" xmlns:xlink="http://www.w3.org/1999/xlink" x="0px" y="0px"
	 viewBox="0 0 552.2 218" enable-background="new 0 0 552.2 218" xml:space="preserve">
<g>
	<g>
		<path fill-rule="evenodd" clip-rule="evenodd" d="M359.1,8.6c-0.8,10.4-2,20.3-2.9,30.6c-4.1,6.1-8.4,12-12.6,18.2
			c-1.4,2-2.5,4.2-4.2,5.9c-10.6-5.8-21.5-11.4-32.1-17.2c-0.3-3.8-1.2-7-1.5-10.7c1.2,0.1,2.8-0.2,3.6,0.2c0.5,2.7,0.9,5.5,1.3,8.2
			c8.7,4.7,17.5,9.3,26.2,14c0.9-9.3,1-19.5,1.5-29.3c-10.5-4-21.3-7.6-31.9-11.5c0.1,2.2,0.9,5.4,1.1,8c-1.2,0-2.4,0-3.6,0
			c-0.7-3.9-1.3-7.9-1.9-11.9c0.7-0.8,1.7-1.4,2.7-1.9c6.5-3.5,13.7-7.6,20.3-10.9c0.2-0.1,0.4-0.5,0.8-0.4
			C336.3,2.6,347.9,5.9,359.1,8.6z M326.2,3.8c-6,3.3-12,6.6-18,9.9c8.9,3.3,18.6,6.4,27.7,9.8c1.4,0.5,3.1,1.5,4,1.3
			c0.9-0.2,2.6-2.3,3.4-3.2c3.6-3.8,6.8-7.2,9.9-10.7C344.3,8.6,335.2,6.2,326.2,3.8z M345.1,25.3c-1.1,1.2-2.8,2.2-3.1,3.3
			c-0.5,1.8-0.1,4.4-0.2,6.5c-0.3,6.7-0.7,12.9-1,19.7c2.7-3.6,6.1-8.4,9-12.6c1.1-1.6,2.5-3.3,2.9-4.6c0.4-1.6,0.2-3.8,0.4-5.7
			c0.5-5.4,1.5-12.1,1.5-16.8C351.8,18.1,348.3,21.8,345.1,25.3z"/>
		<path fill-rule="evenodd" clip-rule="evenodd" d="M187.8,5.4c0.3,7.5,0.2,14.7,0.2,22.4c0,2.4,0.4,5,0.2,7.3
			c-0.2,1.6-1.6,4.4-2.3,6.1c-2.3,5.7-4.9,12.3-7.3,17.6c-13.3-1.9-26.3-4.1-39.4-6.3c-0.5-10.1-1.2-20.5-1.7-30.8
			c-0.1-1.5-0.4-3.4-0.2-4.4c0.3-1.3,2.3-2.4,3.8-3.6c4.4-3.6,8.7-7.4,12.8-10.5C165.4,3.7,176.5,4.6,187.8,5.4z M155.3,6.7
			c-3.7,3.1-8.3,6.5-11.9,9.6c-0.4,0.4-1.6,1.1-1,1.3c10.8,1.5,22.2,2.4,33.1,3.8c2.5-4.3,5.3-8.3,7.6-12.8
			C173.8,8.1,164.5,7.4,155.3,6.7z M180.7,19.7c-0.8,1.3-2.6,3.9-2.9,5.2c-0.4,1.8,0,4.3,0,6.3c0.1,6.4,0.3,12.6,0.6,18.7
			c1.2-3.6,3.1-7.8,4.6-11.5c0.5-1.3,1.4-2.8,1.5-3.8c0.2-1.3-0.2-3.1-0.2-4.8c0-4.9,0.2-11.5-0.2-15.5
			C183.3,16,182,17.6,180.7,19.7z M141.3,21.2c0.1,8.9,1.1,18.7,1.3,28.1c10.7,1.7,21.4,3.5,32.1,5.2c-0.2-9.8-0.6-19.5-0.6-29.4
			C163.6,23.4,152.2,22.6,141.3,21.2z"/>
		<path fill-rule="evenodd" clip-rule="evenodd" d="M248.2,8.2c2.2,0,4.5,0,6.7,0c0,0.9,0,1.8,0,2.7c-2.2,0-4.5,0-6.7,0
			C248.2,10,248.2,9.1,248.2,8.2z"/>
		<path fill-rule="evenodd" clip-rule="evenodd" d="M263.3,8.2c11,0,22.1,0,33.1,0c0,0.9,0,1.8,0,2.7c-11.1,0-22.2,0-33.3,0
			C263.2,10.1,262.8,8.8,263.3,8.2z"/>
		<path fill-rule="evenodd" clip-rule="evenodd" d="M0.2,9.6c13.8,0,27.5,0,41.3,0c0,13.8,0,27.7,0,41.5c-13.8,0-27.7,0-41.5,0
			c0-13.6,0-27.3,0-40.9C0,9.9,0,9.6,0.2,9.6z M3.6,13.8c0,11.2,0,22.4,0,33.7c11.4,0,22.8,0,34.2,0c0-11.4,0-22.8,0-34.2
			c-11.3,0-22.7,0-34,0C3.6,13.2,3.6,13.5,3.6,13.8z"/>
		<path fill-rule="evenodd" clip-rule="evenodd" d="M99.2,31.6c-5.9-3.2-9.9-5.1-15.9-8.2c-1.5-0.8-4.6-1.8-4.8-3.3
			c-0.1-0.8,0.6-2.2,1.7-2.1c2.2,0.2,4.4,1.9,6.7,3.1c4.4,2.2,8.4,4.2,13,6.5c2.3,1.2,5.5,2.5,5.5,4c0,1.7-3.8,3.1-5.7,4
			C94,38.3,89.1,40.3,83.2,43c-1.7,0.8-4.7,2.5-5-0.4c-0.2-1.9,2.9-2.6,4.6-3.4C88.9,36.4,92.9,34.5,99.2,31.6z"/>
		<path fill-rule="evenodd" clip-rule="evenodd" d="M243.2,31.6c-5.9-3.2-9.8-5-15.9-8c-1.4-0.7-4.5-2-4.8-3.1
			c-0.2-1,0.4-2.6,1.5-2.5c2.3,0.2,4.4,1.9,6.7,3.1c4.1,2.1,8.3,4,12.8,6.3c1.5,0.8,5.5,2.5,5.7,3.8c0.3,2.1-3,3-5.5,4.2
			c-5.5,2.5-10.9,4.9-16.8,7.6c-1.6,0.8-5,2.7-4.8-0.8c0.1-1.6,3-2.4,4.8-3.2C232.9,36.3,237,34.4,243.2,31.6z"/>
		<path fill-rule="evenodd" clip-rule="evenodd" d="M281.1,28.9c11,0,22.1,0,33.1,0c0,0.9,0,1.8,0,2.7c-11.1,0-22.2,0-33.3,0
			C281,30.7,280.6,29.4,281.1,28.9z"/>
		<path fill-rule="evenodd" clip-rule="evenodd" d="M248,46.1c6.9,0,13.8,0,20.6,0c0,0.9,0,1.8,0,2.7c-6.9,0-13.9,0-20.8,0
			C247.9,47.9,247.6,46.6,248,46.1z"/>
		<path fill-rule="evenodd" clip-rule="evenodd" d="M274.6,46.1c8.3,0,16.7,0,25,0c0,0.9,0,1.8,0,2.7c-8.4,0-16.8,0-25.2,0
			C274.5,47.9,274.1,46.6,274.6,46.1z"/>
		<path fill-rule="evenodd" clip-rule="evenodd" d="M212.6,103.3c2.2,0,4.5,0,6.7,0c0,10.8,0,24.2,0,36.5c0,4.2-0.4,8.5,1.1,10.9
			c1.1,1.6,3.4,2.7,5.5,2.7c0,2.1,0,4.2,0,6.3c-6.8,0-12-2.3-13.4-8c-0.7-3.1-0.4-7.3-0.4-11.7c0-11.1,0-26.1,0-36.1
			C212.2,103.5,212.4,103.3,212.6,103.3z"/>
		<path fill-rule="evenodd" clip-rule="evenodd" d="M352.8,103.3c0.4,5.8,0.1,12.4,0.2,18.5c2.9-1.7,5.6-3.4,10.7-3.1
			c9.5,0.7,15.9,8.5,16.4,18c0.4,6.4-1.2,13.7-5.7,18.2c-3.6,3.6-11.2,6.7-18.5,3.8c-1.5-0.6-2.6-1.5-4-2.5
			c-0.9,1.1-1.6,2.3-2.5,3.4c-1.1,0-2.3,0-3.4,0c0.1-18.7-0.3-38,0.2-56.4C348.3,103.3,350.5,103.3,352.8,103.3z M370.2,149.7
			c2.2-3,2.9-8.6,2.5-13c-0.6-7.1-6.3-12.8-13.6-12c-1.7,0.2-5.7,1.9-6.1,3.2c-0.4,1.3,0,3.8,0,5.5c0,6,0,11.6,0,17.2
			C357,155.1,366.8,154.3,370.2,149.7z"/>
		<path fill-rule="evenodd" clip-rule="evenodd" d="M243.4,119.3c3.3,0.4,7.3,0.1,10.9,0.2c0,1.8,0,3.7,0,5.5c-3.6,0-7.1,0-10.7,0
			c-0.3,3.7-0.2,8.6-0.2,13.4c0,4.6-0.3,9.4,1.1,12.2c1.9,3.6,7.3,3.6,11.5,1.7c0.5,1.9,0.7,4.1,1.1,6.1c-7,2-14.6,1.5-18-2.7
			c-5.2-6.4-1.9-19.8-2.9-30.8c-1.5,0-2.9,0-4.4,0c0-1.8,0-3.7,0-5.5c1.4,0,2.8,0,4.2,0c0.4-2.4,0.1-5.5,0.2-8.2
			c2.3-0.9,4.6-1.8,6.9-2.7C243.7,111.8,243.3,115.8,243.4,119.3z"/>
		<path fill-rule="evenodd" clip-rule="evenodd" d="M203.8,140c-9.4,0-18.9,0-28.3,0c0.1,8,4.4,13.6,12.2,13.8
			c4.1,0.1,7.4-1.5,10.3-3.4c0.9,1.6,1.7,3.4,2.9,4.8c-3.6,3.1-8.6,5-15.3,4.6c-7-0.4-12.4-4.3-15.3-10.1
			c-6.4-12.9,1-29.5,14.3-30.8C198.6,117.4,206.5,126.8,203.8,140z M185.9,124.7c-5.6,0.5-9.4,4.6-9.9,10.1
			c7.1-0.1,14.8,0.3,21.6-0.2C197.1,128.1,192.5,124.1,185.9,124.7z"/>
		<path fill-rule="evenodd" clip-rule="evenodd" d="M296.9,140c-9.4,0-18.9,0-28.3,0c-0.8,10.6,8.9,16.3,18.4,12.6
			c1.5-0.6,2.5-1.5,4-2.3c0.9,1.7,2.1,3.3,2.9,5.2c-4.1,2.7-8.8,4.6-15.3,4.2c-11.6-0.7-18.2-10.3-17.4-22.2
			c0.7-10.5,8.1-19.6,20.5-18.7C292.6,119.5,299.4,127.7,296.9,140z M286.4,126.4c-6.9-4.6-17.6,0.2-17.6,8.4c7.2,0,14.4,0,21.6,0
			C290.4,131,288.8,128,286.4,126.4z"/>
		<path fill-rule="evenodd" clip-rule="evenodd" d="M335.9,158.9c-2.4,0-4.7,0-7.1,0c-0.4-7.6,0.6-18.1,0-25.8
			c-0.2-2.2-0.7-4.6-1.7-5.9c-3.5-4.7-13-2-15.3,2.5c0,9.8,0,19.5,0,29.3c-2.4,0-4.7,0-7.1,0c0-13.1,0-26.3,0-39.4c1.7,0,3.3,0,5,0
			c0.5,1.7,1.3,3.1,1.9,4.6c1.4-1.1,2.4-2.8,4.2-3.8c4.6-2.6,12.9-1.7,16.3,1.5C339,128.6,334.7,145.9,335.9,158.9z"/>
		<path fill-rule="evenodd" clip-rule="evenodd" d="M419.3,159.7c-4.6-0.1-8.2-1.2-9.2-5c-5,5.5-16.2,6.9-21.4,1.3
			c-1.8-1.9-3.1-5-3.1-8.4c0.2-10.3,12.8-16.2,23.5-13.2c0.1-3.7-0.9-6.8-3.6-8.4c-4.6-2.6-11.8-0.1-14.9,2.5c-0.9-2-2-3.8-2.9-5.9
			c6.5-5.2,21.5-5.5,26.2,1.7c2.1,3.3,2.4,7.7,2.5,12.2c0.1,6.5-1.5,17.3,3.1,19.7C419.4,157.3,419.7,158.9,419.3,159.7z
			 M392.7,147.8c-0.1,4.9,4.1,6.9,9,6.1c3.2-0.5,7.1-3.1,7.6-5.4c0.7-2.9-0.5-5.7,0-9C401.7,137.2,392.9,140.9,392.7,147.8z"/>
		<path fill-rule="evenodd" clip-rule="evenodd" d="M501.5,140c-9.4,0-18.9,0-28.3,0c-0.8,10.6,8.9,16.3,18.4,12.6
			c1.5-0.6,2.5-1.5,4-2.3c0.9,1.7,2.1,3.3,2.9,5.2c-4.2,2.7-8.9,4.6-15.5,4.2c-11.4-0.8-18-10.3-17.2-22.2
			c0.7-10.5,8.1-19.6,20.5-18.7C497.2,119.5,504,127.7,501.5,140z M491,126.4c-6.9-4.6-17.6,0.2-17.6,8.4c7.2,0,14.4,0,21.6,0
			C494.9,131,493.4,128,491,126.4z"/>
		<path fill-rule="evenodd" clip-rule="evenodd" d="M533.6,119.3c-0.7,2.5-2,4.4-2.7,6.9c-2.3-1.3-5.2-2.1-8-0.8
			c-2.8,1.3-5.5,4.8-5.9,9c-0.7,7.1,0.6,16.8,0,24.5c-2.4,0-4.7,0-7.1,0c0-13.1,0-26.3,0-39.4c2.4,0,4.7,0,7.1,0c0,1.8,0,3.7,0,5.5
			c1-0.6,1.5-2.1,2.5-3.1C522.6,119,527.9,118,533.6,119.3z"/>
		<path fill-rule="evenodd" clip-rule="evenodd" d="M110.3,119.3c2.5,0,5.1,0,7.6,0c2.6,8.7,5.6,17,8.2,25.6
			c2.9-6.5,6.3-15.3,9.4-22.8c0.6-1.3,0.6-3.2,2.5-2.9c1,0.2,1.2,1.8,1.7,3.1c3.1,7.4,6.6,15.2,9.6,22.6c3.1-8.4,6.1-17,9-25.6
			c2.4,0,4.7,0,7.1,0c-4.9,13.4-9.3,27.1-14.3,40.3c-2,0.7-2.2-1.2-2.7-2.3c-3.3-7.7-7.2-16.3-10.5-24.3
			c-3.5,7.6-6.7,15.5-10.1,23.5c-0.4,1-0.8,2.3-1.7,3.1c-2.2,0.7-2.5-2.8-3.3-4.8c-4-11.4-8.4-24.1-12.2-35
			C110.4,119.7,110.3,119.6,110.3,119.3z"/>
		<path fill-rule="evenodd" clip-rule="evenodd" d="M427.1,119.5c2.3,0,4.6,0,6.9,0c0.7,8.5-0.9,19.2,0,27.3
			c0.3,2.9,1.9,5.2,3.8,6.1c5.4,2.6,12-1.2,14-5.5c0-9.3,0-18.6,0-27.9c2.4,0,4.7,0,7.1,0c0,13.1,0,26.3,0,39.4c-2.4,0-4.7,0-7.1,0
			c0-1.7,0-3.3,0-5c-2.4,2.6-5.9,5.5-10.9,5.7c-8.1,0.4-13.3-4.3-14-11.5c-0.8-8,0.6-19.1,0-28.1
			C426.9,119.8,426.9,119.5,427.1,119.5z"/>
		<path fill-rule="evenodd" clip-rule="evenodd" d="M545.1,148.8c3-0.7,5.7,0.6,6.7,2.9c1.5,3.6-1.9,10-7.5,7.6
			c-1.9-0.8-4.5-3.8-2.9-7.6C542,150.3,543.3,149.2,545.1,148.8z"/>
	</g>
	<g>
		<path d="M120.9,206l1-2.6c1.5,1,2.8,1.5,3.7,1.5c1.7,0,2.5-0.7,2.5-2.1c0-1-0.8-1.9-2.4-2.6c-1.3-0.6-2.1-1-2.5-1.3
			c-0.4-0.3-0.8-0.6-1.1-1c-0.3-0.4-0.6-0.8-0.7-1.2c-0.2-0.4-0.2-0.9-0.2-1.4c0-1.3,0.5-2.3,1.4-3c0.9-0.7,2.1-1.1,3.6-1.1
			c1.1,0,2.5,0.4,4.2,1.1l-0.8,2.5c-1.1-0.9-2.2-1.3-3.3-1.3c-0.7,0-1.2,0.2-1.6,0.5c-0.4,0.3-0.7,0.7-0.7,1.2c0,1,0.6,1.7,1.7,2.2
			l2,0.9c1.2,0.5,2.1,1.2,2.6,1.9c0.5,0.7,0.8,1.6,0.8,2.6c0,1.4-0.5,2.5-1.5,3.2c-1,0.8-2.3,1.2-4,1.2
			C123.9,207.2,122.3,206.8,120.9,206z"/>
		<path d="M132.8,199.2c0-2.4,0.6-4.3,1.9-5.8c1.3-1.5,3-2.2,5.1-2.2c2.2,0,3.9,0.7,5.1,2.1c1.2,1.4,1.8,3.4,1.8,5.9
			c0,2.5-0.6,4.4-1.9,5.9c-1.2,1.4-2.9,2.2-5.1,2.2c-2.2,0-3.9-0.7-5.1-2.2C133.5,203.6,132.8,201.6,132.8,199.2z M135.7,199.2
			c0,3.9,1.4,5.8,4.1,5.8c1.3,0,2.3-0.5,3-1.6c0.7-1,1.1-2.5,1.1-4.2c0-3.8-1.4-5.7-4.1-5.7c-1.2,0-2.2,0.5-3,1.5
			C136.1,196,135.7,197.4,135.7,199.2z"/>
		<path d="M158,187.6c-0.6-0.2-1.1-0.3-1.6-0.3c-0.8,0-1.5,0.3-2.1,1c-0.5,0.6-0.8,1.4-0.8,2.4c0,0.3,0,0.5,0.1,0.8h3.1v2.3h-3.1
			v13.1h-2.7v-13.1h-2.2v-2.3h2.2c0-2,0.5-3.5,1.5-4.6c1-1.1,2.3-1.7,3.8-1.7c0.8,0,1.7,0.1,2.6,0.4L158,187.6z"/>
		<path d="M161.6,193.7h-1.8v-2.2h1.8v-3.2l2.7-1.1v4.3h4.2v2.2h-4.2v7.7c0,1.3,0.2,2.2,0.7,2.8c0.4,0.5,1.1,0.8,2.1,0.8
			c0.7,0,1.4-0.2,2.2-0.5l0.4,2.4c-1.1,0.3-2.4,0.4-3.7,0.4c-1.2,0-2.2-0.5-3.1-1.4c-0.8-0.9-1.3-2.1-1.3-3.4V193.7z"/>
		<path d="M186.5,207.2h-0.7l-4.5-10.5l-4.5,10.5h-0.7l-5.5-15.8h2.9l3.3,10.1l4.1-10.1h0.7l4.2,10.1l3.5-10.1h2.7L186.5,207.2z"/>
		<path d="M202.9,205.2c-1.1,1.4-2.8,2.1-5,2.1c-1.2,0-2.3-0.4-3.1-1.3c-0.9-0.9-1.3-2-1.3-3.3c0-1.6,0.7-2.9,2.1-4
			c1.4-1.1,3.1-1.6,5.2-1.6c0.6,0,1.2,0.1,2,0.4c0-2.5-1.1-3.7-3.3-3.7c-1.7,0-3,0.5-3.9,1.4l-1.2-2.3c0.5-0.4,1.2-0.8,2.2-1.1
			c0.9-0.3,1.8-0.5,2.6-0.5c2.2,0,3.9,0.5,4.9,1.5c1,1,1.5,2.6,1.5,4.9v5.5c0,1.4,0.4,2.3,1.2,2.7v1.4c-1.1,0-1.9-0.2-2.5-0.5
			C203.6,206.4,203.2,205.9,202.9,205.2z M202.7,199.4c-0.9-0.2-1.5-0.3-1.8-0.3c-1.4,0-2.5,0.4-3.4,1.1c-0.9,0.7-1.3,1.6-1.3,2.5
			c0,1.6,0.9,2.4,2.8,2.4c1.4,0,2.6-0.7,3.7-2V199.4z"/>
		<path d="M218.1,194.1c-0.6-0.4-1.2-0.6-1.8-0.6c-1,0-1.8,0.4-2.5,1.3c-0.7,0.9-1.1,2-1.1,3.2v8.8h-2.7v-15.4h2.7v2.5
			c1-1.8,2.5-2.8,4.5-2.8c0.5,0,1.2,0.1,2.1,0.3L218.1,194.1z"/>
		<path d="M234.2,199.5h-11.1c0,1.8,0.5,3.2,1.5,4.2c0.9,0.8,2,1.3,3.4,1.3c1.6,0,2.9-0.5,3.9-1.4l1.2,2c-0.4,0.4-1.1,0.8-1.9,1.1
			c-1.1,0.4-2.3,0.6-3.7,0.6c-1.9,0-3.6-0.7-4.9-2c-1.5-1.5-2.3-3.4-2.3-5.8c0-2.5,0.8-4.6,2.3-6.1c1.4-1.4,3-2.1,4.9-2.1
			c2.2,0,3.9,0.6,5.2,1.9c1.2,1.2,1.8,2.8,1.8,4.7C234.4,198.4,234.3,199,234.2,199.5z M227.5,193.5c-1.2,0-2.2,0.4-3.1,1.2
			c-0.8,0.7-1.2,1.7-1.3,2.8h8.5c0-1.1-0.3-2-1-2.8C229.9,193.9,228.9,193.5,227.5,193.5z"/>
		<path d="M259.2,199.5H248c0,1.8,0.5,3.2,1.5,4.2c0.9,0.8,2,1.3,3.4,1.3c1.6,0,2.9-0.5,3.9-1.4l1.2,2c-0.4,0.4-1.1,0.8-1.9,1.1
			c-1.1,0.4-2.3,0.6-3.7,0.6c-1.9,0-3.6-0.7-4.9-2c-1.5-1.5-2.3-3.4-2.3-5.8c0-2.5,0.8-4.6,2.3-6.1c1.4-1.4,3-2.1,4.9-2.1
			c2.2,0,3.9,0.6,5.2,1.9c1.2,1.2,1.8,2.8,1.8,4.7C259.4,198.4,259.3,199,259.2,199.5z M252.5,193.5c-1.2,0-2.2,0.4-3.1,1.2
			c-0.8,0.7-1.2,1.7-1.3,2.8h8.5c0-1.1-0.3-2-1-2.8C254.9,193.9,253.8,193.5,252.5,193.5z"/>
		<path d="M271.8,206.9v-9c0-1.6-0.2-2.8-0.7-3.5c-0.5-0.7-1.3-1-2.5-1c-0.6,0-1.3,0.2-2,0.6c-0.7,0.4-1.2,0.8-1.6,1.4v11.5h-2.7
			v-15.4h1.9l0.9,2c0.9-1.5,2.4-2.3,4.4-2.3c3.4,0,5.1,2.1,5.1,6.2v9.6H271.8z"/>
		<path d="M279.4,193.7h-1.8v-2.2h1.8v-3.2l2.7-1.1v4.3h4.2v2.2h-4.2v7.7c0,1.3,0.2,2.2,0.7,2.8c0.4,0.5,1.1,0.8,2.1,0.8
			c0.7,0,1.4-0.2,2.2-0.5l0.4,2.4c-1.1,0.3-2.4,0.4-3.7,0.4c-1.2,0-2.2-0.5-3.1-1.4c-0.8-0.9-1.3-2.1-1.3-3.4V193.7z"/>
		<path d="M304.3,207.2h-0.7l-4.5-10.5l-4.5,10.5h-0.7l-5.5-15.8h2.9l3.3,10.1l4.1-10.1h0.7l4.2,10.1l3.5-10.1h2.7L304.3,207.2z"/>
		<path d="M313.4,206.9v-13.1h-2.1v-2.3h4.9v15.4H313.4z M314.9,185.7c0.5,0,0.9,0.2,1.2,0.5c0.3,0.3,0.5,0.7,0.5,1.2
			c0,0.5-0.2,0.9-0.5,1.2c-0.3,0.3-0.7,0.5-1.2,0.5c-0.5,0-0.9-0.2-1.2-0.5c-0.3-0.3-0.5-0.7-0.5-1.2c0-0.5,0.2-0.9,0.5-1.2
			C314,185.8,314.4,185.7,314.9,185.7z"/>
		<path d="M332.1,192.8l-1.4,1.9c-0.3-0.3-0.8-0.5-1.5-0.8c-0.7-0.2-1.4-0.4-2.1-0.4c-1.5,0-2.7,0.5-3.5,1.6c-0.9,1-1.3,2.5-1.3,4.3
			c0,1.8,0.4,3.2,1.3,4.1c0.9,0.9,2.1,1.4,3.7,1.4c1.2,0,2.5-0.5,3.7-1.4l1.1,2.3c-1.5,1-3.3,1.4-5.5,1.4c-2.1,0-3.8-0.7-5.2-2.1
			c-1.4-1.4-2.1-3.3-2.1-5.7c0-2.5,0.7-4.4,2.1-5.9c1.4-1.5,3.4-2.2,5.9-2.2c0.8,0,1.7,0.2,2.6,0.5
			C331,192.1,331.6,192.4,332.1,192.8z"/>
		<path d="M345,206.9l-4.8-7.7l-2.4,2.5v5.3H335v-21.8h2.7v13.5l5.9-7.2h3.2l-4.9,5.9l6,9.6H345z"/>
		<path d="M350.1,202.6v-17.4h2.7v16.9c0,0.8,0.2,1.5,0.7,2c0.5,0.5,1.1,0.7,1.9,0.7v2.4C351.9,207.2,350.1,205.7,350.1,202.6z"/>
		<path d="M361.2,191.5v9.8c0,2.4,1,3.6,3.1,3.6c0.9,0,1.7-0.3,2.5-0.8c0.7-0.5,1.2-1.1,1.5-1.8v-10.8h2.7v15.4h-2.7v-2.1
			c-0.3,0.6-0.9,1.2-1.9,1.7c-0.9,0.5-1.8,0.8-2.7,0.8c-1.7,0-3-0.5-3.9-1.5c-0.9-1-1.3-2.3-1.3-4.1v-10.1H361.2z"/>
		<path d="M384.2,206.9v-9c0-1.6-0.2-2.8-0.7-3.5c-0.5-0.7-1.3-1-2.5-1c-0.6,0-1.3,0.2-2,0.6c-0.7,0.4-1.2,0.8-1.6,1.4v11.5h-2.7
			v-15.4h1.9l0.9,2c0.9-1.5,2.4-2.3,4.4-2.3c3.4,0,5.1,2.1,5.1,6.2v9.6H384.2z"/>
		<path d="M390.3,211.2l1.5-2.2c1.6,1.1,3.1,1.6,4.4,1.6c1.2,0,2.2-0.2,2.9-0.6c0.7-0.4,1.1-1,1.1-1.6c0-1.2-0.9-1.9-2.7-1.9
			c-0.3,0-0.9,0.1-1.7,0.2c-0.8,0.2-1.4,0.2-1.9,0.2c-2.2,0-3.3-0.8-3.3-2.5c0-0.5,0.3-1,0.8-1.4c0.5-0.4,1.2-0.7,1.9-0.9
			c-2.2-1-3.3-2.8-3.3-5.3c0-1.6,0.6-3,1.7-4c1.1-1.1,2.5-1.6,4.2-1.6c1.5,0,2.7,0.3,3.6,0.9l1.4-1.6l1.8,1.7l-1.6,1.2
			c0.7,0.9,1.1,2.1,1.1,3.6c0,1.6-0.5,2.9-1.5,3.9c-1,1.1-2.2,1.7-3.8,1.8l-2.3,0.2c-0.3,0-0.6,0.1-1.1,0.3
			c-0.5,0.2-0.7,0.4-0.7,0.7c0,0.4,0.5,0.6,1.4,0.6c0.4,0,1.1-0.1,1.9-0.2c0.9-0.1,1.5-0.2,1.9-0.2c1.5,0,2.7,0.4,3.6,1.1
			c0.8,0.7,1.3,1.7,1.3,3c0,1.4-0.6,2.6-1.9,3.4c-1.3,0.9-2.9,1.3-4.8,1.3c-1,0-2-0.2-3.2-0.5C391.9,212.1,391,211.7,390.3,211.2z
			 M396.1,193.4c-1,0-1.7,0.3-2.3,1c-0.6,0.7-0.9,1.5-0.9,2.4c0,1.1,0.3,2,0.9,2.7c0.6,0.7,1.4,1.1,2.4,1.1c1,0,1.7-0.3,2.3-1
			c0.5-0.7,0.8-1.6,0.8-2.7c0-1-0.3-1.8-0.9-2.4C397.7,193.8,397,193.4,396.1,193.4z"/>
		<path d="M414,211.2l1.5-2.2c1.6,1.1,3.1,1.6,4.4,1.6c1.2,0,2.2-0.2,2.9-0.6c0.7-0.4,1.1-1,1.1-1.6c0-1.2-0.9-1.9-2.7-1.9
			c-0.3,0-0.9,0.1-1.7,0.2c-0.8,0.2-1.4,0.2-1.9,0.2c-2.2,0-3.3-0.8-3.3-2.5c0-0.5,0.3-1,0.8-1.4c0.5-0.4,1.2-0.7,1.9-0.9
			c-2.2-1-3.3-2.8-3.3-5.3c0-1.6,0.6-3,1.7-4c1.1-1.1,2.5-1.6,4.2-1.6c1.5,0,2.7,0.3,3.6,0.9l1.4-1.6l1.8,1.7l-1.6,1.2
			c0.7,0.9,1.1,2.1,1.1,3.6c0,1.6-0.5,2.9-1.5,3.9c-1,1.1-2.2,1.7-3.8,1.8l-2.3,0.2c-0.3,0-0.6,0.1-1.1,0.3
			c-0.5,0.2-0.7,0.4-0.7,0.7c0,0.4,0.5,0.6,1.4,0.6c0.4,0,1.1-0.1,1.9-0.2c0.9-0.1,1.5-0.2,1.9-0.2c1.5,0,2.7,0.4,3.6,1.1
			c0.8,0.7,1.3,1.7,1.3,3c0,1.4-0.6,2.6-1.9,3.4c-1.3,0.9-2.9,1.3-4.8,1.3c-1,0-2-0.2-3.2-0.5C415.6,212.1,414.7,211.7,414,211.2z
			 M419.8,193.4c-1,0-1.7,0.3-2.3,1c-0.6,0.7-0.9,1.5-0.9,2.4c0,1.1,0.3,2,0.9,2.7c0.6,0.7,1.4,1.1,2.4,1.1c1,0,1.7-0.3,2.3-1
			c0.5-0.7,0.8-1.6,0.8-2.7c0-1-0.3-1.8-0.9-2.4C421.4,193.8,420.7,193.4,419.8,193.4z"/>
		<path d="M447.2,206.9v-9.8c0-2.4-1.1-3.6-3.2-3.6c-0.7,0-1.3,0.2-1.9,0.6s-1,0.9-1.2,1.4v11.4h-2.7v-11c0-0.8-0.3-1.4-0.9-1.8
			c-0.6-0.4-1.3-0.7-2.3-0.7c-0.5,0-1.1,0.2-1.8,0.6c-0.6,0.4-1.1,0.9-1.3,1.4v11.4h-2.7v-15.4h1.8l0.9,1.8c1.1-1.4,2.4-2.1,4-2.1
			c2.2,0,3.8,0.7,4.6,2.1c0.3-0.6,0.9-1.1,1.7-1.5c0.8-0.4,1.7-0.6,2.6-0.6c1.6,0,2.8,0.5,3.7,1.4c0.9,0.9,1.3,2.3,1.3,4v10.3H447.2
			z"/>
		<path d="M456.2,205.8l-1,1.4h-1.4v-22h2.7v7.5c0.3-0.4,0.7-0.7,1.5-1c0.7-0.3,1.4-0.4,2.1-0.4c2.1,0,3.8,0.7,5.1,2.2
			c1.3,1.5,2,3.3,2,5.5c0,2.6-0.7,4.6-2,6.1c-1.3,1.5-3.1,2.2-5.3,2.2c-0.7,0-1.4-0.1-2.2-0.4C457.1,206.5,456.6,206.2,456.2,205.8z
			 M456.6,194.7v8.9c0,0.2,0.3,0.4,1,0.8c0.7,0.4,1.2,0.5,1.6,0.5c1.9,0,3.2-0.4,4-1.3c0.8-0.9,1.2-2.4,1.2-4.5
			c0-1.7-0.5-3.1-1.4-4.1c-0.9-1-2.2-1.5-3.8-1.5c-0.3,0-0.8,0.1-1.4,0.4C457.2,194.2,456.8,194.5,456.6,194.7z"/>
		<path d="M479.8,206.9v-9.7c0-1.2-0.3-2.1-0.9-2.7c-0.6-0.7-1.4-1-2.4-1c-0.7,0-1.3,0.2-2,0.6c-0.7,0.4-1.2,0.8-1.5,1.4v11.5h-2.7
			v-21.8h2.7v8c0.4-0.6,1-1,1.8-1.4c0.8-0.4,1.6-0.6,2.5-0.6c1.6,0,2.9,0.5,3.8,1.6c0.9,1.1,1.4,2.5,1.4,4.4v9.7H479.8z"/>
	</g>
</g>
</svg>
